<svg width="894" height="527" viewBox="0 0 894 527" fill="none" xmlns="http://www.w3.org/2000/svg">
<g filter="url(#filter0_d_5_26)">
<path d="M662.836 388.76L619.054 387.785C618.492 387.773 618.051 387.3 618.077 386.739L626.05 215.348L643.121 198.385C643.328 198.18 643.614 198.075 643.904 198.098L677.698 200.769L748.884 285.287L749.45 215.773L761.641 200.17C761.827 199.932 762.109 199.791 762.411 199.785L805.281 198.98L805.955 372.536C805.956 372.789 805.861 373.033 805.689 373.219L788.426 391.902L747.278 390.329C747.018 390.319 746.772 390.208 746.593 390.02L678.783 318.842L678.641 370.963C678.64 371.21 678.548 371.449 678.381 371.632L662.836 388.76Z" fill="#F5F296"/>
<path d="M662.836 388.76L619.054 387.785C618.492 387.773 618.051 387.3 618.077 386.739L626.05 215.348M662.836 388.76L664.667 306.502C664.687 305.61 665.776 305.188 666.391 305.834L678.783 318.842M662.836 388.76L678.381 371.632C678.548 371.449 678.64 371.21 678.641 370.963L678.783 318.842M626.05 215.348L661.894 218.182M626.05 215.348L643.121 198.385C643.328 198.18 643.614 198.075 643.904 198.098L677.698 200.769M661.894 218.182L746.89 315.517C747.495 316.21 748.635 315.787 748.643 314.868L748.884 285.287M661.894 218.182L677.698 200.769M749.45 215.773L789.477 216.392M749.45 215.773L761.641 200.17C761.827 199.932 762.109 199.791 762.411 199.785L805.281 198.98M749.45 215.773L748.884 285.287M789.477 216.392L788.426 391.902M789.477 216.392L805.281 198.98M788.426 391.902L747.278 390.329C747.018 390.319 746.772 390.208 746.593 390.02L678.783 318.842M788.426 391.902L805.689 373.219C805.861 373.033 805.956 372.789 805.955 372.536L805.281 198.98M748.884 285.287L677.698 200.769" stroke="black" stroke-width="3"/>
</g>
<g filter="url(#filter1_d_5_26)">
<path d="M404.487 211.199L518.529 204L520.938 237.113L497.648 250.791L442.16 254.39L444.642 278.865L512.104 276.706L515.316 309.819L490.42 326.376L449.931 329.975L451.87 353.011L532.984 345.812L537 382.525L512.104 400.521L398.865 407L382 230.635L404.487 211.199Z" fill="#553438"/>
<path d="M404.487 211.199L518.528 204L520.938 237.113M404.487 211.199L420.549 389.723M404.487 211.199L382 230.635L398.865 407M420.549 389.723L537 382.525M420.549 389.723L398.865 407M537 382.525L532.984 345.812L451.87 353.011L449.931 329.975M537 382.525L512.104 400.521L398.865 407M515.316 309.819L448.658 314.858L449.931 329.975M515.316 309.819L512.104 276.706L444.642 278.865L442.16 254.39M515.316 309.819L490.42 326.376L449.931 329.975M520.938 237.113L440.627 239.273L442.16 254.39M520.938 237.113L497.648 250.791L442.16 254.39" stroke="black" stroke-width="3"/>
</g>
<g filter="url(#filter2_d_5_26)">
<path d="M550.235 409L527.806 396.134L523 209.574L567.056 206L583.077 220.296L590.192 351.102L654.367 348.243L676.796 361.824L680 400.423L550.235 409Z" fill="#167EB9"/>
<path d="M583.077 220.296L543.827 223.155M583.077 220.296L567.056 206L523 209.574M583.077 220.296L590.192 351.102M543.827 223.155L550.235 409M543.827 223.155L523 209.574M550.235 409L527.806 396.134L523 209.574M550.235 409L680 400.423L676.796 361.824M676.796 361.824L591.087 367.542L590.192 351.102M676.796 361.824L654.367 348.243L590.192 351.102" stroke="black" stroke-width="3"/>
</g>
<g filter="url(#filter3_d_5_26)">
<path fill-rule="evenodd" clip-rule="evenodd" d="M390.208 393.985L362.096 328.184C383.407 317.136 422.309 277.748 389.088 221.834C379.786 211.43 345.356 191.289 281.349 200.309L266.718 216.381L263.524 398.507L295.287 402.009L307.805 390.527L309.887 349.759L318.622 350.722L341.519 405.498L373.282 409L390.208 393.985ZM313.994 243.298L312.756 301.844C318.762 302.788 326.992 303.007 335.308 301.413C350.169 294.929 353.856 278.974 353.842 271.807C354.387 249.359 327.504 243.447 313.994 243.298Z" fill="#F73E3E"/>
<path d="M362.096 328.184L361.406 326.852L360.17 327.493L360.717 328.773L362.096 328.184ZM390.208 393.985L391.204 395.107L392.012 394.39L391.587 393.396L390.208 393.985ZM389.088 221.834L390.378 221.068L390.303 220.943L390.206 220.834L389.088 221.834ZM281.349 200.309L281.14 198.824L280.604 198.899L280.24 199.299L281.349 200.309ZM266.718 216.381L265.609 215.371L265.228 215.79L265.218 216.355L266.718 216.381ZM263.524 398.507L262.024 398.48L262 399.848L263.359 399.998L263.524 398.507ZM295.287 402.009L295.123 403.5L295.799 403.574L296.301 403.114L295.287 402.009ZM307.805 390.527L308.819 391.632L309.271 391.217L309.303 390.603L307.805 390.527ZM309.887 349.759L310.051 348.268L308.47 348.094L308.389 349.683L309.887 349.759ZM318.622 350.722L320.006 350.144L319.665 349.328L318.786 349.231L318.622 350.722ZM341.519 405.498L340.135 406.077L340.476 406.892L341.355 406.989L341.519 405.498ZM373.282 409L373.118 410.491L373.78 410.564L374.278 410.122L373.282 409ZM312.756 301.844L311.257 301.812L311.229 303.122L312.523 303.325L312.756 301.844ZM313.994 243.298L314.01 241.798L312.525 241.781L312.494 243.266L313.994 243.298ZM335.308 301.413L335.591 302.886L335.755 302.854L335.908 302.787L335.308 301.413ZM353.842 271.807L352.343 271.771L352.342 271.79L352.342 271.81L353.842 271.807ZM310.581 336.17L310.745 334.679L309.164 334.505L309.083 336.094L310.581 336.17ZM328.845 338.184L330.181 337.503L329.814 336.781L329.009 336.693L328.845 338.184ZM368.836 267.029L370.327 267.194L370.337 267.101L370.336 267.007L368.836 267.029ZM314.282 229.664L314.069 228.179L312.809 228.36L312.782 229.632L314.282 229.664ZM360.717 328.773L388.829 394.574L391.587 393.396L363.475 327.595L360.717 328.773ZM387.799 222.6C404.162 250.142 402.707 273.451 394.675 291.216C386.6 309.075 371.815 321.456 361.406 326.852L362.786 329.516C373.688 323.864 389.01 311.026 397.408 292.452C405.85 273.781 407.235 249.44 390.378 221.068L387.799 222.6ZM281.559 201.795C345.226 192.822 379.095 212.907 387.97 222.834L390.206 220.834C380.478 209.953 345.486 189.755 281.14 198.824L281.559 201.795ZM267.827 217.391L282.458 201.319L280.24 199.299L265.609 215.371L267.827 217.391ZM265.023 398.533L268.218 216.407L265.218 216.355L262.024 398.48L265.023 398.533ZM295.451 400.518L263.688 397.016L263.359 399.998L295.123 403.5L295.451 400.518ZM306.791 389.421L294.273 400.903L296.301 403.114L308.819 391.632L306.791 389.421ZM308.389 349.683L306.307 390.45L309.303 390.603L311.385 349.836L308.389 349.683ZM318.786 349.231L310.051 348.268L309.722 351.25L318.457 352.213L318.786 349.231ZM342.903 404.92L320.006 350.144L317.238 351.301L340.135 406.077L342.903 404.92ZM373.447 407.509L341.683 404.007L341.355 406.989L373.118 410.491L373.447 407.509ZM389.213 392.863L372.287 407.878L374.278 410.122L391.204 395.107L389.213 392.863ZM314.256 301.875L315.493 243.329L312.494 243.266L311.257 301.812L314.256 301.875ZM335.026 299.939C326.898 301.498 318.845 301.282 312.989 300.362L312.523 303.325C318.68 304.293 327.085 304.517 335.591 302.886L335.026 299.939ZM352.342 271.81C352.349 275.182 351.475 280.734 348.805 286.209C346.146 291.66 341.741 296.97 334.709 300.038L335.908 302.787C343.736 299.372 348.605 293.462 351.501 287.524C354.387 281.608 355.35 275.599 355.342 271.804L352.342 271.81ZM313.977 244.798C320.58 244.871 330.429 246.36 338.501 250.524C346.523 254.662 352.597 261.309 352.343 271.771L355.342 271.843C355.633 259.857 348.537 252.325 339.876 247.857C331.265 243.416 320.918 241.874 314.01 241.798L313.977 244.798ZM279.85 200.267L274.542 386.982L277.541 387.068L282.849 200.352L279.85 200.267ZM275.877 388.516L307.64 392.018L307.969 389.036L276.206 385.534L275.877 388.516ZM310.416 337.661L328.68 339.675L329.009 336.693L310.745 334.679L310.416 337.661ZM327.508 338.864L355.257 393.371L357.931 392.01L330.181 337.503L327.508 338.864ZM356.536 394.189L390.15 395.484L390.266 392.486L356.652 391.192L356.536 394.189ZM264.538 399.612L277.055 388.13L275.027 385.92L262.51 397.401L264.538 399.612ZM355.623 391.547L340.548 404.355L342.49 406.641L357.565 393.834L355.623 391.547ZM311.385 349.836L312.079 336.247L309.083 336.094L308.389 349.683L311.385 349.836ZM319.784 351.67L330.007 339.132L327.682 337.236L317.459 349.774L319.784 351.67ZM370.336 267.007C370.222 259.196 367.264 247.904 358.708 239.334C350.087 230.699 335.997 225.037 314.069 228.179L314.495 231.149C335.685 228.112 348.762 233.618 356.585 241.453C364.471 249.352 367.231 259.832 367.336 267.051L370.336 267.007ZM312.782 229.632L312.494 243.266L315.493 243.329L315.782 229.695L312.782 229.632ZM335.591 302.886C343.459 301.377 351.504 298.264 357.916 292.59C364.358 286.89 369.061 278.685 370.327 267.194L367.345 266.865C366.157 277.646 361.79 285.157 355.928 290.343C350.037 295.556 342.545 298.498 335.026 299.94L335.591 302.886Z" fill="black"/>
</g>
<g filter="url(#filter4_d_5_26)">
<path fill-rule="evenodd" clip-rule="evenodd" d="M273.844 223.446C254.881 197.334 189.095 201.252 161.7 208.855L148 223.093L166.261 408.329L195.666 403.444L207.767 389.288L202.768 322.692C236.297 326.398 259.301 310.219 266.612 301.666C291.351 271.295 281.741 236.864 273.844 223.446ZM195.275 244.376L199.577 291.545C207.748 292.457 219.377 292.365 229.931 289.572C242.29 280.477 243.654 265.32 242.792 258.878C241.862 240.647 210.727 241.614 195.275 244.376Z" fill="#77D24C"/>
<path d="M161.7 208.855L161.299 207.41L160.903 207.519L160.619 207.815L161.7 208.855ZM273.844 223.446L275.137 222.685L275.1 222.623L275.058 222.564L273.844 223.446ZM148 223.093L146.919 222.053L146.439 222.552L146.507 223.24L148 223.093ZM166.261 408.329L164.769 408.476L164.926 410.071L166.507 409.808L166.261 408.329ZM195.666 403.444L195.911 404.924L196.451 404.835L196.806 404.419L195.666 403.444ZM207.767 389.288L208.907 390.263L209.309 389.792L209.263 389.176L207.767 389.288ZM202.768 322.692L202.933 321.201L201.137 321.003L201.272 322.804L202.768 322.692ZM266.612 301.666L267.753 302.641L267.764 302.627L267.775 302.613L266.612 301.666ZM199.577 291.545L198.083 291.681L198.194 292.9L199.41 293.036L199.577 291.545ZM195.275 244.376L195.011 242.9L193.656 243.142L193.781 244.513L195.275 244.376ZM229.931 289.572L230.315 291.022L230.59 290.949L230.82 290.78L229.931 289.572ZM242.792 258.878L241.294 258.954L241.297 259.016L241.305 259.077L242.792 258.878ZM255.668 259.913L254.168 259.879L254.167 259.918L254.168 259.958L255.668 259.913ZM194.123 231.742L193.772 230.283L192.511 230.587L192.629 231.878L194.123 231.742ZM195.275 244.376L196.772 244.283L196.771 244.261L196.769 244.24L195.275 244.376ZM162.101 210.3C175.628 206.547 198.756 203.68 220.844 205.005C231.882 205.667 242.594 207.372 251.686 210.499C260.791 213.631 268.139 218.143 272.63 224.327L275.058 222.564C270.067 215.692 262.081 210.902 252.662 207.662C243.229 204.418 232.227 202.682 221.024 202.01C198.63 200.667 175.168 203.561 161.299 207.41L162.101 210.3ZM149.081 224.133L162.781 209.895L160.619 207.815L146.919 222.053L149.081 224.133ZM167.754 408.181L149.493 222.946L146.507 223.24L164.769 408.476L167.754 408.181ZM195.42 401.965L166.016 406.849L166.507 409.808L195.911 404.924L195.42 401.965ZM206.627 388.313L194.525 402.47L196.806 404.419L208.907 390.263L206.627 388.313ZM201.272 322.804L206.271 389.4L209.263 389.176L204.264 322.58L201.272 322.804ZM265.472 300.691C258.442 308.916 235.907 324.846 202.933 321.201L202.603 324.183C236.687 327.95 260.161 311.522 267.753 302.641L265.472 300.691ZM272.551 224.206C280.258 237.302 289.653 271.004 265.449 300.719L267.775 302.613C293.049 271.586 283.224 236.427 275.137 222.685L272.551 224.206ZM201.071 291.409L196.769 244.24L193.781 244.513L198.083 291.681L201.071 291.409ZM229.547 288.122C219.218 290.856 207.783 290.952 199.743 290.054L199.41 293.036C207.713 293.963 219.536 293.875 230.315 291.022L229.547 288.122ZM241.305 259.077C242.129 265.227 240.787 279.721 229.042 288.363L230.82 290.78C243.793 281.234 245.18 265.412 244.278 258.679L241.305 259.077ZM195.539 245.853C203.17 244.489 214.628 243.581 224.225 245.233C229.026 246.059 233.23 247.504 236.257 249.739C239.228 251.932 241.087 254.894 241.294 258.954L244.29 258.801C244.032 253.746 241.65 249.992 238.039 247.325C234.483 244.7 229.763 243.142 224.733 242.276C214.668 240.544 202.832 241.502 195.011 242.9L195.539 245.853ZM179.9 394.882L163.194 208.721L160.206 208.989L176.912 395.15L179.9 394.882ZM207.48 387.816L178.118 393.544L178.693 396.488L208.054 390.76L207.48 387.816ZM257.167 259.948C257.343 252.37 254.323 241.804 244.673 234.707C235.01 227.601 219.028 224.212 193.772 230.283L194.474 233.2C219.256 227.243 234.213 230.738 242.896 237.124C251.592 243.52 254.326 253.054 254.168 259.879L257.167 259.948ZM192.629 231.878L193.781 244.512L196.769 244.24L195.617 231.606L192.629 231.878ZM193.778 244.47L193.778 244.47L196.772 244.283L196.772 244.283L193.778 244.47ZM230.315 291.022C237.506 289.118 244.348 285.953 249.341 280.922C254.376 275.848 257.439 268.965 257.167 259.869L254.168 259.958C254.416 268.25 251.654 274.332 247.212 278.808C242.728 283.327 236.442 286.296 229.547 288.121L230.315 291.022ZM177.297 394.005L165.153 407.318L167.37 409.34L179.514 396.027L177.297 394.005Z" fill="black"/>
</g>
<g filter="url(#filter5_d_5_26)">
<circle cx="716" cy="220" r="10" fill="#C6CFFF" fill-opacity="0.54" shape-rendering="crispEdges"/>
<circle cx="716" cy="220" r="9.375" stroke="#9483FF" stroke-width="1.25" shape-rendering="crispEdges"/>
</g>
<g filter="url(#filter6_d_5_26)">
<circle cx="731.5" cy="204.5" r="7.5" fill="#C6CFFF" fill-opacity="0.54" shape-rendering="crispEdges"/>
<circle cx="731.5" cy="204.5" r="6.875" stroke="#9483FF" stroke-width="1.25" shape-rendering="crispEdges"/>
</g>
<g filter="url(#filter7_d_5_26)">
<circle cx="706" cy="187" r="5" fill="#C6CFFF" fill-opacity="0.54" shape-rendering="crispEdges"/>
<circle cx="706" cy="187" r="4.375" stroke="#9483FF" stroke-width="1.25" shape-rendering="crispEdges"/>
</g>
<circle cx="734.5" cy="203.5" r="1.5" fill="#F4F6FF" fill-opacity="0.79"/>
<circle cx="717" cy="216" r="2" fill="#F4F6FF" fill-opacity="0.79"/>
<circle cx="705" cy="185" r="1" fill="#F4F6FF" fill-opacity="0.79"/>
<circle cx="721" cy="217" r="1" fill="#F4F6FF" fill-opacity="0.79"/>
<g filter="url(#filter8_d_5_26)">
<circle cx="716" cy="220" r="10" fill="#C6CFFF" fill-opacity="0.54" shape-rendering="crispEdges"/>
<circle cx="716" cy="220" r="9.375" stroke="#9483FF" stroke-width="1.25" shape-rendering="crispEdges"/>
</g>
<g filter="url(#filter9_d_5_26)">
<circle cx="731.5" cy="204.5" r="7.5" fill="#C6CFFF" fill-opacity="0.54" shape-rendering="crispEdges"/>
<circle cx="731.5" cy="204.5" r="6.875" stroke="#9483FF" stroke-width="1.25" shape-rendering="crispEdges"/>
</g>
<g filter="url(#filter10_d_5_26)">
<circle cx="706" cy="187" r="5" fill="#C6CFFF" fill-opacity="0.54" shape-rendering="crispEdges"/>
<circle cx="706" cy="187" r="4.375" stroke="#9483FF" stroke-width="1.25" shape-rendering="crispEdges"/>
</g>
<circle cx="734.5" cy="203.5" r="1.5" fill="#F4F6FF" fill-opacity="0.79"/>
<circle cx="717" cy="216" r="2" fill="#F4F6FF" fill-opacity="0.79"/>
<circle cx="705" cy="185" r="1" fill="#F4F6FF" fill-opacity="0.79"/>
<circle cx="721" cy="217" r="1" fill="#F4F6FF" fill-opacity="0.79"/>
<g filter="url(#filter11_d_5_26)">
<circle cx="417" cy="187" r="10" fill="#C6CFFF" fill-opacity="0.54" shape-rendering="crispEdges"/>
<circle cx="417" cy="187" r="9.375" stroke="#9483FF" stroke-width="1.25" shape-rendering="crispEdges"/>
</g>
<g filter="url(#filter12_d_5_26)">
<circle cx="432.5" cy="171.5" r="7.5" fill="#C6CFFF" fill-opacity="0.54" shape-rendering="crispEdges"/>
<circle cx="432.5" cy="171.5" r="6.875" stroke="#9483FF" stroke-width="1.25" shape-rendering="crispEdges"/>
</g>
<g filter="url(#filter13_d_5_26)">
<circle cx="407" cy="154" r="5" fill="#C6CFFF" fill-opacity="0.54" shape-rendering="crispEdges"/>
<circle cx="407" cy="154" r="4.375" stroke="#9483FF" stroke-width="1.25" shape-rendering="crispEdges"/>
</g>
<circle cx="435.5" cy="170.5" r="1.5" fill="#F4F6FF" fill-opacity="0.79"/>
<circle cx="418" cy="183" r="2" fill="#F4F6FF" fill-opacity="0.79"/>
<circle cx="406" cy="152" r="1" fill="#F4F6FF" fill-opacity="0.79"/>
<circle cx="422" cy="184" r="1" fill="#F4F6FF" fill-opacity="0.79"/>
<g filter="url(#filter14_d_5_26)">
<circle cx="417" cy="187" r="10" fill="#C6CFFF" fill-opacity="0.54" shape-rendering="crispEdges"/>
<circle cx="417" cy="187" r="9.375" stroke="#9483FF" stroke-width="1.25" shape-rendering="crispEdges"/>
</g>
<g filter="url(#filter15_d_5_26)">
<circle cx="432.5" cy="171.5" r="7.5" fill="#C6CFFF" fill-opacity="0.54" shape-rendering="crispEdges"/>
<circle cx="432.5" cy="171.5" r="6.875" stroke="#9483FF" stroke-width="1.25" shape-rendering="crispEdges"/>
</g>
<g filter="url(#filter16_d_5_26)">
<circle cx="407" cy="154" r="5" fill="#C6CFFF" fill-opacity="0.54" shape-rendering="crispEdges"/>
<circle cx="407" cy="154" r="4.375" stroke="#9483FF" stroke-width="1.25" shape-rendering="crispEdges"/>
</g>
<circle cx="435.5" cy="170.5" r="1.5" fill="#F4F6FF" fill-opacity="0.79"/>
<circle cx="418" cy="183" r="2" fill="#F4F6FF" fill-opacity="0.79"/>
<circle cx="406" cy="152" r="1" fill="#F4F6FF" fill-opacity="0.79"/>
<circle cx="422" cy="184" r="1" fill="#F4F6FF" fill-opacity="0.79"/>
<g filter="url(#filter17_d_5_26)">
<circle cx="120" cy="318" r="10" fill="#C6CFFF" fill-opacity="0.54" shape-rendering="crispEdges"/>
<circle cx="120" cy="318" r="9.375" stroke="#9483FF" stroke-width="1.25" shape-rendering="crispEdges"/>
</g>
<g filter="url(#filter18_d_5_26)">
<circle cx="135.5" cy="302.5" r="7.5" fill="#C6CFFF" fill-opacity="0.54" shape-rendering="crispEdges"/>
<circle cx="135.5" cy="302.5" r="6.875" stroke="#9483FF" stroke-width="1.25" shape-rendering="crispEdges"/>
</g>
<g filter="url(#filter19_d_5_26)">
<circle cx="110" cy="285" r="5" fill="#C6CFFF" fill-opacity="0.54" shape-rendering="crispEdges"/>
<circle cx="110" cy="285" r="4.375" stroke="#9483FF" stroke-width="1.25" shape-rendering="crispEdges"/>
</g>
<circle cx="138.5" cy="301.5" r="1.5" fill="#F4F6FF" fill-opacity="0.79"/>
<circle cx="121" cy="314" r="2" fill="#F4F6FF" fill-opacity="0.79"/>
<circle cx="109" cy="283" r="1" fill="#F4F6FF" fill-opacity="0.79"/>
<circle cx="125" cy="315" r="1" fill="#F4F6FF" fill-opacity="0.79"/>
<g filter="url(#filter20_d_5_26)">
<circle cx="150" cy="95" r="10" fill="#C6CFFF" fill-opacity="0.54" shape-rendering="crispEdges"/>
<circle cx="150" cy="95" r="9.375" stroke="#9483FF" stroke-width="1.25" shape-rendering="crispEdges"/>
</g>
<g filter="url(#filter21_d_5_26)">
<circle cx="165.5" cy="79.5" r="7.5" fill="#C6CFFF" fill-opacity="0.54" shape-rendering="crispEdges"/>
<circle cx="165.5" cy="79.5" r="6.875" stroke="#9483FF" stroke-width="1.25" shape-rendering="crispEdges"/>
</g>
<g filter="url(#filter22_d_5_26)">
<circle cx="140" cy="62" r="5" fill="#C6CFFF" fill-opacity="0.54" shape-rendering="crispEdges"/>
<circle cx="140" cy="62" r="4.375" stroke="#9483FF" stroke-width="1.25" shape-rendering="crispEdges"/>
</g>
<circle cx="168.5" cy="78.5" r="1.5" fill="#F4F6FF" fill-opacity="0.79"/>
<circle cx="151" cy="91" r="2" fill="#F4F6FF" fill-opacity="0.79"/>
<circle cx="139" cy="60" r="1" fill="#F4F6FF" fill-opacity="0.79"/>
<circle cx="155" cy="92" r="1" fill="#F4F6FF" fill-opacity="0.79"/>
<g filter="url(#filter23_d_5_26)">
<circle cx="150" cy="95" r="10" fill="#C6CFFF" fill-opacity="0.54" shape-rendering="crispEdges"/>
<circle cx="150" cy="95" r="9.375" stroke="#9483FF" stroke-width="1.25" shape-rendering="crispEdges"/>
</g>
<g filter="url(#filter24_d_5_26)">
<circle cx="165.5" cy="79.5" r="7.5" fill="#C6CFFF" fill-opacity="0.54" shape-rendering="crispEdges"/>
<circle cx="165.5" cy="79.5" r="6.875" stroke="#9483FF" stroke-width="1.25" shape-rendering="crispEdges"/>
</g>
<g filter="url(#filter25_d_5_26)">
<circle cx="140" cy="62" r="5" fill="#C6CFFF" fill-opacity="0.54" shape-rendering="crispEdges"/>
<circle cx="140" cy="62" r="4.375" stroke="#9483FF" stroke-width="1.25" shape-rendering="crispEdges"/>
</g>
<circle cx="168.5" cy="78.5" r="1.5" fill="#F4F6FF" fill-opacity="0.79"/>
<circle cx="151" cy="91" r="2" fill="#F4F6FF" fill-opacity="0.79"/>
<circle cx="139" cy="60" r="1" fill="#F4F6FF" fill-opacity="0.79"/>
<circle cx="155" cy="92" r="1" fill="#F4F6FF" fill-opacity="0.79"/>
<g filter="url(#filter26_d_5_26)">
<circle cx="703" cy="403" r="10" fill="#C6CFFF" fill-opacity="0.54" shape-rendering="crispEdges"/>
<circle cx="703" cy="403" r="9.375" stroke="#9483FF" stroke-width="1.25" shape-rendering="crispEdges"/>
</g>
<g filter="url(#filter27_d_5_26)">
<circle cx="708.5" cy="377.5" r="7.5" fill="#C6CFFF" fill-opacity="0.54" shape-rendering="crispEdges"/>
<circle cx="708.5" cy="377.5" r="6.875" stroke="#9483FF" stroke-width="1.25" shape-rendering="crispEdges"/>
</g>
<g filter="url(#filter28_d_5_26)">
<circle cx="691" cy="383" r="5" fill="#C6CFFF" fill-opacity="0.54" shape-rendering="crispEdges"/>
<circle cx="691" cy="383" r="4.375" stroke="#9483FF" stroke-width="1.25" shape-rendering="crispEdges"/>
</g>
<circle cx="711.5" cy="376.5" r="1.5" fill="#F4F6FF" fill-opacity="0.79"/>
<circle cx="704" cy="399" r="2" fill="#F4F6FF" fill-opacity="0.79"/>
<circle cx="690" cy="381" r="1" fill="#F4F6FF" fill-opacity="0.79"/>
<circle cx="708" cy="400" r="1" fill="#F4F6FF" fill-opacity="0.79"/>
<g filter="url(#filter29_d_5_26)">
<path fill-rule="evenodd" clip-rule="evenodd" d="M197.158 72.1992C186.502 80.851 170.605 103.293 190.162 125.881C198.389 135.383 202.031 143.08 203.061 149.068C200.163 152.979 192.069 158.454 182.873 149.068C171.378 137.335 121.474 92.9159 73.5333 130.63C58.3885 142.544 46.1484 173.749 67.3921 184.29C67.7372 184.461 68.1184 184.578 68.5006 184.626C71.694 185.031 75.6269 184.913 77.9183 183.37C79.6735 182.188 75.5592 180.853 72.3752 179.819C71.3902 179.499 70.4943 179.208 69.8887 178.96C60.3565 175.049 71.0101 147.112 89.5137 139.569C104.317 133.535 114.746 134.448 118.11 135.658C130.166 142.177 153.603 158.678 150.912 172.534C129.138 173.838 82.4487 187.061 69.8887 229.524C68.6738 237.253 69.4962 257.963 82.5048 278.972C86.8036 288.097 91.6444 305.958 76.6173 304.394C75.228 304.394 61.9984 298.632 67.7652 290.914C67.8659 290.78 67.9319 290.697 68.091 290.642C68.4163 290.53 68.933 290.467 69.4909 290.399C70.6954 290.253 72.0923 290.083 72.1723 289.345C72.4298 286.965 71.064 285.001 65.7019 285.603C65.3249 285.646 64.9539 285.777 64.6444 285.996C59.5417 289.613 55.3475 299.369 76.2345 312.26C76.4823 312.413 76.7501 312.543 77.0284 312.629C83.5898 314.655 99.887 314.84 99.887 294.057C99.3262 288.004 95.7937 272.155 86.1494 257.181C85.5441 235.95 96.1862 203.376 153.155 207.175C153 207.439 152.836 207.712 152.665 207.998C148.488 214.979 140.03 229.116 149.51 277.854C159.379 328.586 126.521 338.545 107.176 340.99C94.6536 342.573 71.4026 350.041 78.5798 367.25C85.2203 383.172 93.3968 377.973 96.1741 373.29C97.3188 371.36 95.6303 370.991 93.6653 372.075C90.7068 373.707 86.7568 373.859 83.6262 368.088C78.0191 357.752 93.3664 351.988 110.541 349.092C128.764 346.019 152.033 339.873 160.444 328.977C168.855 318.082 180.35 282.045 178.948 254.946C178.094 238.451 182.955 226.303 189.229 218.629C192.437 217.698 199.47 217.791 201.937 225.613C203.459 230.438 208.612 243.906 213.975 257.922C219.479 272.308 225.204 287.27 227.45 294.057C228.126 296.101 228.994 298.525 229.955 301.209C236.908 320.629 248.72 353.622 227.925 354.115C227.623 354.122 227.301 354.089 227.01 354.007C223.186 352.925 216.687 348.612 218.198 338.858C218.912 339.507 219.817 340.187 220.948 340.895C221.351 341.148 221.802 341.336 222.277 341.322C224.371 341.263 227.249 339.35 226.048 331.771C224.702 323.278 217.076 323.763 213.432 325.066C210.254 326.556 204.909 332.833 208.946 346.019C213.993 362.501 221.001 373.955 233.057 372.558C245.112 371.161 261.653 355.238 263.055 333.447C264.457 311.657 257.168 275.619 251 265.283C249.294 262.423 248.059 258.795 247.184 254.946C246.681 244.703 251.112 223.769 272.868 221.982C289.999 220.574 319.37 232.47 340.022 249.638C337.072 254.729 326.887 261.336 314.878 269.124C312.609 270.596 310.275 272.11 307.912 273.664C303.24 276.737 294.96 285.117 299.221 294.057C303.398 302.819 313.123 302.456 317.732 301.123C317.916 301.07 318.093 301.002 318.262 300.91C320.529 299.679 323.316 296.206 318.265 290.969C318.097 290.795 317.898 290.644 317.676 290.547C317.552 290.492 317.42 290.441 317.285 290.395C316.015 289.962 316.387 290.64 316.979 291.719C317.352 292.398 317.811 293.236 318.005 294.057C318.856 297.662 314.223 298.534 311.431 298.534C311.141 298.534 310.856 298.494 310.578 298.409C307.608 297.503 302.704 294.57 303.987 289.029C305.333 283.218 318.379 275.805 324.734 272.826C333.179 269.473 350.003 261.986 349.738 258.857C350.765 259.986 351.305 261.126 351.852 262.278C352.277 263.175 352.705 264.08 353.37 264.993C360.459 285.759 366.227 331.481 328.939 331.481C323.332 331.481 312.847 330.933 310.155 328.698C309.304 327.991 307.933 327.41 306.304 326.994C302.335 325.981 303.229 327.643 306.511 330.095C312.118 334.285 331.211 337.671 339.593 335.123C356.134 330.095 370.152 316.685 372.395 292.381C373.719 278.032 371.33 257.257 360.381 239.023C360.399 238.975 360.417 238.928 360.435 238.88C351.023 221.53 327.071 209.637 313.105 202.703C308.572 200.452 305.09 198.723 303.5 197.5C329.239 196.462 349.237 200.841 363.646 206.562C363.616 206.41 363.585 206.258 363.553 206.106C360.796 192.963 351.938 180.882 331.182 177.004C328.251 176.378 322.587 175.577 315.728 175.386C314.513 173.337 315.706 166.891 331.182 161.08C350.527 153.817 369.03 159.125 376.039 170.299C379.127 175.222 381.398 181.663 383.405 187.353C385.954 194.579 388.075 200.594 390.898 200.75C391.304 200.772 391.722 200.8 392.151 200.829C395.997 201.09 394.524 198.397 392.715 195.086C392.578 194.835 392.439 194.581 392.3 194.325C390.992 191.252 388.375 182.703 388.375 173.093C388.375 161.08 372.114 141.525 353.05 139.011C333.986 136.497 323.052 141.525 314.08 148.509C312.147 150.014 310.331 151.649 308.52 153.279C301.926 159.214 295.398 165.09 283.521 164.433C281.061 164.168 277.248 162.668 276.383 158.846C288.388 154.748 312.006 143.425 310.436 130.909C309.895 126.601 309.185 122.887 308.568 119.66C306.944 111.169 305.966 106.058 310.436 102.414C314.485 99.1127 317.931 100.729 319.811 102.598C320.516 103.299 320.698 104.415 320.103 105.212C319.872 105.522 319.602 105.769 319.302 105.878C318.153 106.292 318.85 103.915 319.54 104.481C319.592 104.537 319.641 104.594 319.687 104.649C319.639 104.576 319.589 104.521 319.54 104.481C318.554 103.399 316.682 102.235 316.043 105.208C315.406 108.17 318.739 107.86 320.761 107.266C320.981 107.201 321.192 107.113 321.385 106.989C322.581 106.218 324.071 104.474 322.211 102.414C319.687 99.6206 315.482 95.7095 305.389 98.2238C295.296 100.738 296.698 111.074 297.539 115.265C298.38 119.455 298.38 128.954 293.614 135.1C289.801 140.016 276.623 143.294 270.51 144.319C273.771 128.814 273.457 117.123 272.587 112.192C260.543 55.295 217.925 61.4636 197.785 71.791C197.558 71.9074 197.357 72.0383 197.158 72.1992Z" fill="#FF6161"/>
<path d="M190.162 125.881L190.918 125.226L190.918 125.226L190.162 125.881ZM197.158 72.1992L196.528 71.4228L196.528 71.4228L197.158 72.1992ZM203.061 149.068L203.864 149.663L204.119 149.32L204.046 148.898L203.061 149.068ZM182.873 149.068L182.158 149.768L182.158 149.768L182.873 149.068ZM73.5333 130.63L74.1516 131.416L74.1516 131.416L73.5333 130.63ZM67.3921 184.29L67.8366 183.394L67.8366 183.394L67.3921 184.29ZM68.5006 184.626L68.6263 183.634L68.6263 183.634L68.5006 184.626ZM77.9183 183.37L77.3598 182.541L77.3598 182.541L77.9183 183.37ZM72.3752 179.819L72.0664 180.77L72.0664 180.77L72.3752 179.819ZM69.8887 178.96L70.2683 178.034L70.2683 178.034L69.8887 178.96ZM89.5137 139.569L89.1362 138.643L89.1362 138.643L89.5137 139.569ZM118.11 135.658L118.586 134.779L118.52 134.743L118.449 134.717L118.11 135.658ZM150.912 172.534L150.972 173.533L151.746 173.486L151.894 172.725L150.912 172.534ZM69.8887 229.524L68.9298 229.241L68.9111 229.304L68.9008 229.369L69.8887 229.524ZM82.5048 278.972L83.4094 278.545L83.3851 278.494L83.355 278.445L82.5048 278.972ZM76.6173 304.394L76.7208 303.399L76.6692 303.394H76.6173V304.394ZM67.7652 290.914L66.9641 290.316L66.9641 290.316L67.7652 290.914ZM68.091 290.642L68.4165 291.588L68.4165 291.588L68.091 290.642ZM69.4909 290.399L69.3701 289.407L69.3701 289.407L69.4909 290.399ZM72.1723 289.345L73.1664 289.452L73.1664 289.452L72.1723 289.345ZM65.7019 285.603L65.5903 284.61L65.5903 284.61L65.7019 285.603ZM64.6444 285.996L64.0661 285.18L64.0661 285.18L64.6444 285.996ZM76.2345 312.26L76.7597 311.409L76.7597 311.409L76.2345 312.26ZM77.0284 312.629L76.7333 313.584L76.7333 313.584L77.0284 312.629ZM99.887 294.057H100.887V294.011L100.883 293.965L99.887 294.057ZM86.1494 257.181L85.1498 257.21L85.1578 257.488L85.3087 257.723L86.1494 257.181ZM153.155 207.175L154.017 207.682L154.839 206.285L153.221 206.177L153.155 207.175ZM152.665 207.998L151.807 207.485L151.807 207.485L152.665 207.998ZM149.51 277.854L148.529 278.045L148.529 278.045L149.51 277.854ZM107.176 340.99L107.051 339.998L107.051 339.998L107.176 340.99ZM78.5798 367.25L77.6568 367.635L77.6568 367.635L78.5798 367.25ZM96.1741 373.29L97.0342 373.8L97.0342 373.8L96.1741 373.29ZM93.6653 372.075L94.1483 372.951L94.1483 372.951L93.6653 372.075ZM83.6262 368.088L84.5052 367.611L84.5052 367.611L83.6262 368.088ZM110.541 349.092L110.374 348.105L110.374 348.105L110.541 349.092ZM178.948 254.946L177.949 254.998L177.949 254.998L178.948 254.946ZM189.229 218.629L188.95 217.669L188.652 217.755L188.455 217.996L189.229 218.629ZM201.937 225.613L200.983 225.914L200.983 225.914L201.937 225.613ZM213.975 257.922L214.909 257.564L214.909 257.564L213.975 257.922ZM227.45 294.057L226.5 294.371L227.45 294.057ZM229.955 301.209L230.896 300.872L230.896 300.872L229.955 301.209ZM227.925 354.115L227.902 353.115L227.902 353.115L227.925 354.115ZM227.01 354.007L227.282 353.045L227.282 353.045L227.01 354.007ZM218.198 338.858L218.871 338.118L217.494 336.866L217.21 338.704L218.198 338.858ZM220.948 340.895L221.479 340.048L221.479 340.048L220.948 340.895ZM222.277 341.322L222.249 340.323L222.249 340.323L222.277 341.322ZM226.048 331.771L227.036 331.615L227.036 331.615L226.048 331.771ZM213.432 325.066L213.095 324.125L213.05 324.141L213.007 324.161L213.432 325.066ZM208.946 346.019L209.902 345.726L209.902 345.726L208.946 346.019ZM263.055 333.447L264.053 333.511L264.053 333.511L263.055 333.447ZM251 265.283L251.858 264.77L251.858 264.77L251 265.283ZM247.184 254.946L246.186 254.995L246.19 255.083L246.209 255.168L247.184 254.946ZM272.868 221.982L272.95 222.978L272.95 222.978L272.868 221.982ZM340.022 249.638L340.888 250.14L341.311 249.409L340.662 248.869L340.022 249.638ZM314.878 269.124L314.334 268.285L314.334 268.285L314.878 269.124ZM307.912 273.664L308.462 274.499L308.462 274.499L307.912 273.664ZM299.221 294.057L300.124 293.627L300.124 293.627L299.221 294.057ZM317.732 301.123L317.454 300.163L317.454 300.163L317.732 301.123ZM318.262 300.91L317.785 300.031L317.785 300.031L318.262 300.91ZM318.265 290.969L318.985 290.275L318.985 290.275L318.265 290.969ZM317.676 290.547L318.076 289.63L318.076 289.63L317.676 290.547ZM317.285 290.395L316.962 291.341L316.962 291.341L317.285 290.395ZM316.979 291.719L316.102 292.2L316.102 292.2L316.979 291.719ZM318.005 294.057L318.978 293.827L318.978 293.827L318.005 294.057ZM311.431 298.534L311.431 299.534L311.431 299.534L311.431 298.534ZM310.578 298.409L310.87 297.453L310.87 297.453L310.578 298.409ZM303.987 289.029L303.013 288.803L303.013 288.803L303.987 289.029ZM324.734 272.826L324.365 271.896L324.337 271.907L324.309 271.92L324.734 272.826ZM349.738 258.857L350.477 258.184L348.492 256.004L348.741 258.942L349.738 258.857ZM351.852 262.278L350.948 262.706L350.948 262.706L351.852 262.278ZM353.37 264.993L354.317 264.67L354.268 264.527L354.179 264.404L353.37 264.993ZM310.155 328.698L309.516 329.467L309.516 329.467L310.155 328.698ZM306.304 326.994L306.057 327.963L306.057 327.963L306.304 326.994ZM306.511 330.095L305.912 330.896L305.912 330.896L306.511 330.095ZM339.593 335.123L339.884 336.08L339.884 336.08L339.593 335.123ZM372.395 292.381L373.39 292.473L373.39 292.473L372.395 292.381ZM360.381 239.023L359.447 238.666L359.274 239.121L359.524 239.537L360.381 239.023ZM360.435 238.88L361.371 239.234L361.533 238.806L361.314 238.403L360.435 238.88ZM313.105 202.703L312.661 203.598L312.661 203.598L313.105 202.703ZM303.5 197.5L303.46 196.501L300.705 196.612L302.89 198.293L303.5 197.5ZM363.646 206.562L363.277 207.491L364.985 208.169L364.627 206.367L363.646 206.562ZM363.553 206.106L364.532 205.901L364.532 205.901L363.553 206.106ZM331.182 177.004L330.973 177.982L330.986 177.985L330.998 177.987L331.182 177.004ZM315.728 175.386L314.868 175.896L315.149 176.37L315.7 176.386L315.728 175.386ZM331.182 161.08L330.83 160.144L330.83 160.144L331.182 161.08ZM376.039 170.299L375.192 170.831L375.192 170.831L376.039 170.299ZM383.405 187.353L384.348 187.02L384.348 187.02L383.405 187.353ZM390.898 200.75L390.843 201.748L390.843 201.748L390.898 200.75ZM392.151 200.829L392.219 199.832L392.219 199.832L392.151 200.829ZM392.715 195.086L393.592 194.606L393.592 194.606L392.715 195.086ZM392.3 194.325L391.38 194.716L391.398 194.759L391.42 194.8L392.3 194.325ZM314.08 148.509L314.694 149.298L314.694 149.298L314.08 148.509ZM308.52 153.279L307.851 152.536L307.851 152.536L308.52 153.279ZM283.521 164.433L283.414 165.427L283.44 165.43L283.466 165.431L283.521 164.433ZM276.383 158.846L276.06 157.899L275.21 158.189L275.408 159.066L276.383 158.846ZM310.436 130.909L309.443 131.034L309.443 131.034L310.436 130.909ZM308.568 119.66L307.585 119.848L307.585 119.848L308.568 119.66ZM310.436 102.414L311.067 103.189L311.067 103.189L310.436 102.414ZM319.811 102.598L320.516 101.889L320.516 101.889L319.811 102.598ZM320.103 105.212L319.302 104.613L319.302 104.613L320.103 105.212ZM319.302 105.878L318.963 104.937L318.963 104.937L319.302 105.878ZM319.687 104.649L318.92 105.291L320.518 104.093L319.687 104.649ZM316.043 105.208L317.02 105.418L317.02 105.418L316.043 105.208ZM320.761 107.266L320.479 106.307L320.479 106.307L320.761 107.266ZM321.385 106.989L321.927 107.829L321.927 107.829L321.385 106.989ZM322.211 102.414L322.953 101.744L322.953 101.744L322.211 102.414ZM305.389 98.2238L305.631 99.1942L305.631 99.1942L305.389 98.2238ZM293.614 135.1L292.824 134.487L292.824 134.487L293.614 135.1ZM270.51 144.319L269.532 144.113L269.23 145.547L270.676 145.305L270.51 144.319ZM272.587 112.192L273.572 112.018L273.569 112.002L273.566 111.985L272.587 112.192ZM197.785 71.791L198.242 72.6808L198.242 72.6808L197.785 71.791ZM264.715 165.023L265.715 165.045L265.715 165.045L264.715 165.023ZM164.65 194.325L165.302 195.083L165.302 195.083L164.65 194.325ZM218.734 331.408L218.827 332.403L218.827 332.403L218.734 331.408ZM217.734 331.764L218.284 332.599L218.284 332.599L217.734 331.764ZM319.127 196.474L319.307 195.49L319.307 195.49L319.127 196.474ZM319.127 206.106L318.769 207.04L318.769 207.04L319.127 206.106ZM298.721 176.348L298.57 175.36L298.57 175.36L298.721 176.348ZM297.481 176.341L297.301 177.325L297.301 177.325L297.481 176.341ZM293.465 171.121L292.924 170.28L292.924 170.28L293.465 171.121ZM294.376 170.721L294.65 171.683L294.65 171.683L294.376 170.721ZM264.939 163.875L263.998 163.536L263.998 163.536L264.939 163.875ZM302.5 198.25L301.972 199.099L301.972 199.099L302.5 198.25ZM190.918 125.226C181.375 114.204 180.52 103.306 183.288 94.1019C186.077 84.8287 192.57 77.2129 197.789 72.9755L196.528 71.4228C191.091 75.8372 184.307 83.7682 181.373 93.5259C178.417 103.352 179.392 114.969 189.406 126.535L190.918 125.226ZM204.046 148.898C202.975 142.669 199.216 134.81 190.918 125.226L189.406 126.535C197.563 135.957 201.087 143.491 202.075 149.237L204.046 148.898ZM182.158 149.768C186.948 154.657 191.597 155.795 195.519 155.036C199.363 154.292 202.31 151.761 203.864 149.663L202.257 148.473C200.914 150.286 198.365 152.448 195.138 153.073C191.989 153.682 187.993 152.866 183.587 148.368L182.158 149.768ZM74.1516 131.416C97.7707 112.835 121.834 114.472 141.503 122.236C161.22 130.019 176.453 143.944 182.158 149.768L183.587 148.368C177.798 142.458 162.332 128.308 142.238 120.376C122.097 112.426 97.2371 110.71 72.9151 129.844L74.1516 131.416ZM67.8366 183.394C62.7578 180.874 59.7203 177.149 58.2039 172.804C56.6784 168.433 56.6719 163.369 57.7944 158.186C60.0443 147.798 66.7678 137.225 74.1516 131.416L72.9151 129.844C65.154 135.949 58.185 146.935 55.8397 157.763C54.6645 163.189 54.6347 168.647 56.3156 173.463C58.0057 178.306 61.4046 182.435 66.9476 185.185L67.8366 183.394ZM68.6263 183.634C68.3582 183.6 68.0846 183.517 67.8366 183.394L66.9476 185.185C67.3899 185.405 67.8786 185.556 68.375 185.618L68.6263 183.634ZM77.3598 182.541C76.4077 183.182 75.0373 183.57 73.4453 183.734C71.8696 183.896 70.1666 183.829 68.6263 183.634L68.375 185.618C70.028 185.828 71.8882 185.904 73.6501 185.723C75.3958 185.543 77.1375 185.101 78.4767 184.2L77.3598 182.541ZM72.0664 180.77C73.687 181.296 75.4252 181.863 76.5474 182.431C76.8212 182.57 77.0332 182.696 77.186 182.808C77.3486 182.926 77.391 182.99 77.388 182.985C77.3692 182.954 77.3012 182.804 77.3635 182.612C77.4114 182.464 77.4869 182.455 77.3598 182.541L78.4767 184.2C78.7884 183.99 79.1193 183.68 79.2657 183.23C79.4266 182.734 79.3002 182.277 79.0928 181.939C78.9012 181.627 78.6246 181.381 78.3645 181.192C78.0946 180.995 77.7803 180.814 77.4504 180.647C76.1583 179.993 74.2474 179.375 72.684 178.868L72.0664 180.77ZM69.5091 179.885C70.1581 180.151 71.0974 180.455 72.0664 180.77L72.684 178.868C71.683 178.543 70.8305 178.265 70.2683 178.034L69.5091 179.885ZM89.1362 138.643C79.5752 142.541 72.1294 151.648 68.2758 160.216C66.3468 164.506 65.2761 168.75 65.3318 172.232C65.3871 175.692 66.5844 178.685 69.5091 179.885L70.2683 178.034C68.4269 177.279 67.3813 175.313 67.3315 172.2C67.2821 169.108 68.244 165.163 70.0998 161.037C73.8159 152.774 80.9486 144.141 89.8912 140.496L89.1362 138.643ZM118.449 134.717C114.783 133.398 104.089 132.548 89.1362 138.643L89.8912 140.496C104.545 134.522 114.709 135.497 117.772 136.599L118.449 134.717ZM151.894 172.725C152.628 168.947 151.564 165.072 149.491 161.356C147.416 157.638 144.285 153.994 140.73 150.619C133.618 143.87 124.666 138.067 118.586 134.779L117.635 136.538C123.61 139.769 132.404 145.475 139.353 152.07C142.828 155.368 145.804 158.854 147.744 162.331C149.685 165.81 150.542 169.194 149.93 172.344L151.894 172.725ZM70.8476 229.808C77.0326 208.898 91.6223 195.16 107.427 186.471C123.244 177.775 140.212 174.177 150.972 173.533L150.852 171.536C139.837 172.196 122.574 175.861 106.463 184.718C90.3396 193.583 75.3048 207.688 68.9298 229.241L70.8476 229.808ZM83.355 278.445C70.4798 257.652 69.6966 237.186 70.8766 229.68L68.9008 229.369C67.651 237.32 68.5126 258.275 81.6546 279.498L83.355 278.445ZM76.5137 305.388C80.4547 305.798 83.3135 304.952 85.1895 303.071C87.0388 301.216 87.7396 298.544 87.808 295.716C87.9444 290.072 85.5815 283.156 83.4094 278.545L81.6001 279.398C83.7269 283.913 85.9338 290.49 85.8086 295.667C85.7461 298.249 85.1082 300.32 83.7731 301.659C82.4647 302.971 80.2935 303.771 76.7208 303.399L76.5137 305.388ZM66.9641 290.316C65.3559 292.468 65.0147 294.591 65.5565 296.544C66.0815 298.435 67.3986 300.036 68.8508 301.302C70.3139 302.577 71.9969 303.583 73.3963 304.27C74.0981 304.615 74.7414 304.886 75.2652 305.073C75.5266 305.166 75.7674 305.242 75.977 305.296C76.1653 305.344 76.399 305.394 76.6173 305.394V303.394C76.6619 303.394 76.6295 303.398 76.4741 303.358C76.3401 303.324 76.1599 303.268 75.9378 303.189C75.4948 303.031 74.9216 302.791 74.2779 302.475C72.9863 301.841 71.4617 300.924 70.1647 299.794C68.8567 298.654 67.8608 297.368 67.4837 296.009C67.1234 294.711 67.2911 293.219 68.5662 291.513L66.9641 290.316ZM67.7654 289.697C67.3014 289.857 67.0818 290.158 66.9641 290.316L68.5662 291.513C68.5917 291.479 68.6012 291.467 68.6061 291.461C68.6093 291.457 68.5988 291.47 68.5774 291.49C68.5541 291.511 68.5246 291.533 68.4905 291.553C68.4573 291.572 68.4306 291.583 68.4165 291.588L67.7654 289.697ZM69.3701 289.407C68.8625 289.469 68.2156 289.542 67.7654 289.697L68.4165 291.588C68.6169 291.519 69.0035 291.466 69.6117 291.392L69.3701 289.407ZM71.1781 289.237C71.1954 289.077 71.291 288.999 71.2848 289.003C71.2603 289.022 71.1698 289.075 70.9656 289.136C70.5548 289.26 69.9982 289.33 69.3701 289.407L69.6117 291.392C70.1882 291.322 70.9322 291.235 71.541 291.052C71.8466 290.96 72.1956 290.823 72.4931 290.597C72.8089 290.358 73.1091 289.982 73.1664 289.452L71.1781 289.237ZM65.8135 286.597C68.4142 286.305 69.7826 286.674 70.4558 287.164C71.0482 287.596 71.2834 288.264 71.1781 289.237L73.1664 289.452C73.3187 288.046 72.9997 286.543 71.6331 285.547C70.3472 284.611 68.3517 284.299 65.5903 284.61L65.8135 286.597ZM65.2227 286.812C65.3801 286.7 65.5865 286.623 65.8135 286.597L65.5903 284.61C65.0632 284.669 64.5277 284.853 64.0661 285.18L65.2227 286.812ZM76.7597 311.409C66.3909 305.01 62.513 299.541 61.6729 295.449C60.8505 291.444 62.8935 288.463 65.2227 286.812L64.0661 285.18C61.2926 287.146 58.6871 290.852 59.7137 295.852C60.7226 300.765 65.191 306.62 75.7093 313.111L76.7597 311.409ZM77.3234 311.673C77.1412 311.617 76.9505 311.527 76.7597 311.409L75.7093 313.111C76.0142 313.299 76.359 313.469 76.7333 313.584L77.3234 311.673ZM98.887 294.057C98.887 299.124 97.8937 302.829 96.3683 305.518C94.8477 308.198 92.7679 309.923 90.4932 310.991C85.8963 313.15 80.4554 312.64 77.3234 311.673L76.7333 313.584C80.1628 314.643 86.1512 315.239 91.3433 312.801C93.963 311.571 96.3676 309.572 98.1078 306.505C99.8431 303.447 100.887 299.381 100.887 294.057H98.887ZM85.3087 257.723C94.8547 272.544 98.3433 288.234 98.8912 294.149L100.883 293.965C100.309 287.774 96.7328 271.766 86.9901 256.64L85.3087 257.723ZM153.221 206.177C124.546 204.265 107.308 211.499 97.3334 222.107C87.3828 232.689 84.8428 246.439 85.1498 257.21L87.149 257.153C86.8508 246.691 89.3291 233.539 98.7904 223.477C108.228 213.44 124.795 206.286 153.088 208.173L153.221 206.177ZM153.523 208.512C153.694 208.227 153.86 207.95 154.017 207.682L152.293 206.668C152.14 206.928 151.978 207.198 151.807 207.485L153.523 208.512ZM150.492 277.663C145.764 253.359 145.525 237.758 146.957 227.404C148.383 217.091 151.47 211.943 153.523 208.512L151.807 207.485C149.683 211.034 146.453 216.445 144.976 227.13C143.504 237.775 143.776 253.611 148.529 278.045L150.492 277.663ZM107.302 341.982C117.034 340.752 130.357 337.616 139.995 328.247C149.7 318.813 155.472 303.262 150.492 277.663L148.529 278.045C153.418 303.178 147.694 317.973 138.601 326.813C129.441 335.717 116.663 338.783 107.051 339.998L107.302 341.982ZM79.5027 366.865C77.8007 362.784 77.9307 359.375 79.1763 356.508C80.4369 353.606 82.8906 351.145 86.0359 349.099C92.3397 344.998 101.116 342.764 107.302 341.982L107.051 339.998C100.714 340.799 91.6034 343.091 84.9453 347.422C81.6097 349.592 78.8137 352.323 77.3419 355.711C75.8552 359.134 75.7703 363.112 77.6568 367.635L79.5027 366.865ZM95.314 372.78C94.01 374.978 91.5522 377.085 88.8582 376.997C86.2519 376.912 82.7832 374.731 79.5027 366.865L77.6568 367.635C81.0169 375.692 84.9567 378.871 88.7931 378.996C92.5418 379.118 95.5609 376.284 97.0342 373.8L95.314 372.78ZM94.1483 372.951C94.57 372.718 94.9509 372.578 95.2532 372.515C95.4036 372.483 95.5225 372.473 95.6096 372.474C95.6987 372.475 95.7347 372.488 95.7329 372.488C95.7269 372.486 95.6745 372.463 95.6212 372.397C95.5651 372.327 95.5488 372.259 95.546 372.23C95.544 372.209 95.5563 372.371 95.314 372.78L97.0342 373.8C97.3642 373.243 97.5947 372.635 97.5367 372.037C97.4685 371.334 97.0241 370.837 96.4387 370.616C95.9263 370.423 95.3518 370.45 94.8413 370.558C94.3102 370.669 93.7432 370.89 93.1824 371.199L94.1483 372.951ZM82.7472 368.565C84.396 371.605 86.3535 373.249 88.446 373.822C90.5271 374.393 92.5274 373.845 94.1483 372.951L93.1824 371.199C91.8448 371.937 90.3908 372.281 88.9747 371.893C87.5698 371.508 85.987 370.343 84.5052 367.611L82.7472 368.565ZM110.374 348.105C101.765 349.557 93.4826 351.745 88.0349 354.937C85.3112 356.533 83.1798 358.446 82.1392 360.756C81.0714 363.126 81.2225 365.754 82.7472 368.565L84.5052 367.611C83.2263 365.254 83.1932 363.286 83.9627 361.577C84.7594 359.809 86.4869 358.162 89.0459 356.663C94.1637 353.664 102.142 351.522 110.707 350.078L110.374 348.105ZM159.653 328.366C155.631 333.575 147.946 337.757 138.834 341.027C129.764 344.282 119.455 346.574 110.374 348.105L110.707 350.078C119.85 348.536 130.286 346.219 139.51 342.909C148.692 339.614 156.846 335.275 161.236 329.589L159.653 328.366ZM177.949 254.998C178.643 268.405 176.144 284.077 172.411 297.775C168.669 311.506 163.733 323.08 159.653 328.366L161.236 329.589C165.566 323.979 170.583 312.088 174.341 298.301C178.107 284.482 180.655 268.586 179.946 254.895L177.949 254.998ZM188.455 217.996C182.011 225.878 177.084 238.275 177.949 254.998L179.946 254.895C179.105 238.627 183.899 226.728 190.003 219.262L188.455 217.996ZM202.891 225.312C201.562 221.101 198.958 218.887 196.198 217.897C193.494 216.928 190.713 217.157 188.95 217.669L189.508 219.59C190.953 219.17 193.293 218.98 195.523 219.78C197.699 220.56 199.845 222.304 200.983 225.914L202.891 225.312ZM214.909 257.564C209.537 243.526 204.401 230.1 202.891 225.312L200.983 225.914C202.517 230.776 207.687 244.286 213.041 258.279L214.909 257.564ZM228.399 293.743C226.144 286.928 220.407 271.936 214.909 257.564L213.041 258.279C218.55 272.679 224.264 287.613 226.5 294.371L228.399 293.743ZM230.896 300.872C229.934 298.185 229.071 295.773 228.399 293.743L226.5 294.371C227.181 296.429 228.054 298.866 229.013 301.546L230.896 300.872ZM227.949 355.114C230.681 355.05 232.949 354.449 234.781 353.355C236.618 352.258 237.961 350.699 238.89 348.813C240.728 345.085 240.957 340.071 240.339 334.646C239.101 323.771 234.361 310.55 230.896 300.872L229.013 301.546C232.501 311.288 237.145 324.274 238.352 334.873C238.957 340.185 238.675 344.726 237.096 347.929C236.317 349.509 235.225 350.76 233.756 351.638C232.281 352.518 230.368 353.056 227.902 353.115L227.949 355.114ZM226.738 354.969C227.142 355.084 227.565 355.123 227.949 355.114L227.902 353.115C227.68 353.12 227.461 353.095 227.282 353.045L226.738 354.969ZM217.21 338.704C216.414 343.845 217.726 347.644 219.818 350.303C221.885 352.93 224.661 354.382 226.738 354.969L227.282 353.045C225.536 352.551 223.15 351.304 221.39 349.066C219.653 346.859 218.472 343.624 219.186 339.011L217.21 338.704ZM221.479 340.048C220.387 339.364 219.532 338.719 218.871 338.118L217.525 339.597C218.292 340.295 219.247 341.01 220.417 341.743L221.479 340.048ZM222.249 340.323C222.054 340.328 221.802 340.25 221.479 340.048L220.417 341.743C220.9 342.045 221.55 342.343 222.305 342.322L222.249 340.323ZM225.06 331.928C225.644 335.61 225.2 337.715 224.533 338.865C223.895 339.965 222.989 340.302 222.249 340.323L222.305 342.322C223.659 342.283 225.239 341.634 226.263 339.868C227.258 338.152 227.653 335.511 227.036 331.615L225.06 331.928ZM213.769 326.008C215.465 325.401 218.051 325.007 220.308 325.701C221.418 326.042 222.439 326.642 223.26 327.606C224.082 328.571 224.747 329.953 225.06 331.928L227.036 331.615C226.676 329.343 225.883 327.601 224.783 326.309C223.681 325.016 222.316 324.226 220.896 323.789C218.093 322.928 215.043 323.428 213.095 324.125L213.769 326.008ZM209.902 345.726C205.973 332.891 211.239 327.199 213.856 325.972L213.007 324.161C209.27 325.913 203.845 332.774 207.99 346.311L209.902 345.726ZM232.942 371.565C227.327 372.215 222.874 369.909 219.147 365.359C215.383 360.764 212.415 353.931 209.902 345.726L207.99 346.311C210.524 354.588 213.584 361.724 217.599 366.627C221.653 371.575 226.731 374.298 233.172 373.551L232.942 371.565ZM262.057 333.383C261.372 344.041 256.982 353.27 251.287 360.004C245.57 366.765 238.634 370.905 232.942 371.565L233.172 373.551C239.535 372.814 246.897 368.294 252.815 361.296C258.755 354.272 263.337 344.644 264.053 333.511L262.057 333.383ZM250.141 265.795C251.617 268.268 253.2 272.36 254.724 277.513C256.241 282.647 257.679 288.767 258.883 295.252C261.294 308.238 262.751 322.604 262.057 333.383L264.053 333.511C264.761 322.5 263.275 307.952 260.849 294.887C259.635 288.348 258.182 282.158 256.642 276.946C255.107 271.755 253.467 267.466 251.858 264.77L250.141 265.795ZM246.209 255.168C247.096 259.07 248.36 262.811 250.141 265.795L251.858 264.77C250.227 262.036 249.022 258.52 248.16 254.725L246.209 255.168ZM272.786 220.985C261.534 221.91 254.711 227.816 250.806 234.805C246.929 241.744 245.927 249.735 246.186 254.995L248.183 254.897C247.938 249.914 248.9 242.317 252.552 235.781C256.175 229.295 262.446 223.841 272.95 222.978L272.786 220.985ZM340.662 248.869C330.251 240.214 317.655 232.898 305.504 227.918C293.377 222.949 281.58 220.262 272.786 220.985L272.95 222.978C281.287 222.293 292.741 224.85 304.746 229.769C316.726 234.678 329.142 241.894 339.383 250.407L340.662 248.869ZM315.422 269.963C321.418 266.074 326.995 262.458 331.441 259.174C335.85 255.918 339.296 252.886 340.888 250.14L339.157 249.137C337.798 251.482 334.677 254.298 330.253 257.565C325.866 260.805 320.346 264.386 314.334 268.285L315.422 269.963ZM308.462 274.499C310.821 272.947 313.153 271.435 315.422 269.963L314.334 268.285C312.065 269.757 309.728 271.272 307.363 272.828L308.462 274.499ZM300.124 293.627C298.182 289.552 299.064 285.583 301.078 282.168C303.103 278.734 306.219 275.974 308.462 274.499L307.363 272.828C304.933 274.426 301.572 277.393 299.355 281.152C297.126 284.931 295.999 289.623 298.319 294.487L300.124 293.627ZM317.454 300.163C315.277 300.792 311.872 301.193 308.546 300.403C305.256 299.622 302.06 297.688 300.124 293.627L298.319 294.487C300.559 299.188 304.314 301.454 308.084 302.349C311.816 303.235 315.578 302.787 318.009 302.084L317.454 300.163ZM317.785 300.031C317.691 300.082 317.584 300.125 317.454 300.163L318.009 302.084C318.249 302.015 318.495 301.922 318.739 301.789L317.785 300.031ZM317.545 291.663C319.936 294.142 320.286 296 320.029 297.238C319.76 298.53 318.761 299.501 317.785 300.031L318.739 301.789C320.029 301.088 321.558 299.707 321.987 297.646C322.427 295.531 321.645 293.033 318.985 290.275L317.545 291.663ZM317.277 291.464C317.353 291.497 317.447 291.561 317.545 291.663L318.985 290.275C318.747 290.029 318.444 289.791 318.076 289.63L317.277 291.464ZM316.962 291.341C317.071 291.379 317.176 291.42 317.277 291.464L318.076 289.63C317.927 289.565 317.77 289.504 317.607 289.448L316.962 291.341ZM317.856 291.238C317.703 290.96 317.585 290.745 317.503 290.57C317.463 290.484 317.44 290.428 317.429 290.394C317.415 290.353 317.43 290.382 317.433 290.457C317.435 290.534 317.426 290.748 317.257 290.961C317.081 291.182 316.86 291.243 316.762 291.257C316.675 291.27 316.64 291.255 316.697 291.266C316.745 291.275 316.83 291.296 316.962 291.341L317.607 289.448C317.286 289.339 316.868 289.221 316.474 289.278C316.241 289.312 315.926 289.421 315.69 289.717C315.462 290.005 315.427 290.321 315.434 290.523C315.446 290.877 315.598 291.219 315.694 291.422C315.808 291.665 315.959 291.939 316.102 292.2L317.856 291.238ZM318.978 293.827C318.748 292.85 318.214 291.891 317.856 291.238L316.102 292.2C316.489 292.906 316.875 293.622 317.032 294.287L318.978 293.827ZM311.431 299.534C312.893 299.534 314.92 299.311 316.515 298.55C317.321 298.165 318.091 297.608 318.584 296.797C319.094 295.959 319.245 294.954 318.978 293.827L317.032 294.287C317.191 294.962 317.082 295.418 316.875 295.757C316.652 296.124 316.249 296.461 315.654 296.745C314.446 297.321 312.761 297.534 311.431 297.534L311.431 299.534ZM310.286 299.366C310.663 299.481 311.047 299.534 311.431 299.534L311.431 297.534C311.235 297.534 311.048 297.507 310.87 297.453L310.286 299.366ZM303.013 288.803C302.285 291.947 303.329 294.396 304.957 296.14C306.548 297.844 308.69 298.879 310.286 299.366L310.87 297.453C309.497 297.034 307.701 296.149 306.419 294.775C305.173 293.44 304.406 291.652 304.962 289.254L303.013 288.803ZM324.309 271.92C321.094 273.428 316.192 276.053 311.909 279.046C309.769 280.542 307.758 282.147 306.185 283.768C304.633 285.369 303.412 287.082 303.013 288.803L304.962 289.254C305.236 288.069 306.15 286.677 307.621 285.161C309.072 283.665 310.971 282.141 313.055 280.685C317.221 277.774 322.019 275.203 325.158 273.731L324.309 271.92ZM348.741 258.942C348.737 258.899 348.754 259.083 348.336 259.556C347.958 259.985 347.359 260.496 346.549 261.075C344.937 262.226 342.646 263.534 340.046 264.868C334.856 267.53 328.57 270.227 324.365 271.896L325.103 273.755C329.343 272.072 335.692 269.349 340.959 266.647C343.587 265.299 345.98 263.939 347.712 262.702C348.574 262.086 349.312 261.473 349.835 260.88C350.32 260.332 350.804 259.598 350.734 258.773L348.741 258.942ZM352.755 261.85C352.211 260.702 351.617 259.436 350.477 258.184L348.998 259.531C349.914 260.537 350.4 261.55 350.948 262.706L352.755 261.85ZM354.179 264.404C353.576 263.577 353.183 262.753 352.755 261.85L350.948 262.706C351.37 263.597 351.834 264.582 352.562 265.582L354.179 264.404ZM328.939 332.481C338.481 332.481 345.383 329.548 350.193 324.718C354.981 319.911 357.595 313.325 358.782 306.188C361.153 291.938 357.89 275.138 354.317 264.67L352.424 265.316C355.939 275.613 359.105 292.058 356.81 305.86C355.664 312.75 353.172 318.893 348.776 323.307C344.401 327.699 338.041 330.481 328.939 330.481V332.481ZM309.516 329.467C310.373 330.178 311.722 330.674 313.192 331.045C314.702 331.426 316.488 331.71 318.341 331.921C322.048 332.343 326.111 332.481 328.939 332.481V330.481C326.16 330.481 322.177 330.345 318.567 329.934C316.761 329.729 315.071 329.457 313.682 329.106C312.254 328.746 311.283 328.335 310.794 327.929L309.516 329.467ZM306.057 327.963C307.63 328.365 308.833 328.9 309.516 329.467L310.794 327.929C309.775 327.083 308.236 326.455 306.552 326.025L306.057 327.963ZM307.109 329.294C306.31 328.696 305.68 328.165 305.244 327.727C305.026 327.508 304.871 327.328 304.77 327.186C304.659 327.033 304.654 326.982 304.663 327.02C304.679 327.089 304.699 327.339 304.496 327.56C304.343 327.726 304.205 327.713 304.322 327.699C304.546 327.672 305.078 327.713 306.057 327.963L306.552 326.025C305.546 325.768 304.701 325.638 304.079 325.714C303.773 325.751 303.344 325.858 303.024 326.206C302.653 326.609 302.629 327.103 302.714 327.47C302.792 327.805 302.969 328.107 303.144 328.351C303.328 328.609 303.563 328.874 303.828 329.139C304.358 329.671 305.071 330.267 305.912 330.896L307.109 329.294ZM339.302 334.167C335.34 335.371 328.661 335.196 322.17 334.149C318.95 333.629 315.826 332.904 313.171 332.054C310.495 331.198 308.377 330.241 307.109 329.294L305.912 330.896C307.448 332.044 309.819 333.082 312.562 333.959C315.326 334.844 318.55 335.591 321.852 336.123C328.405 337.18 335.464 337.424 339.884 336.08L339.302 334.167ZM371.399 292.289C369.195 316.171 355.471 329.251 339.302 334.167L339.884 336.08C356.796 330.939 371.109 317.2 373.39 292.473L371.399 292.289ZM359.524 239.537C370.341 257.552 372.708 278.104 371.399 292.289L373.39 292.473C374.73 277.96 372.319 256.961 361.239 238.508L359.524 239.537ZM359.5 238.526C359.482 238.573 359.465 238.62 359.447 238.666L361.316 239.379C361.334 239.331 361.352 239.283 361.371 239.234L359.5 238.526ZM361.314 238.403C356.495 229.519 347.997 222.099 339.037 216.057C330.064 210.006 320.528 205.272 313.55 201.807L312.661 203.598C319.649 207.068 329.071 211.748 337.919 217.715C346.779 223.69 354.964 230.891 359.556 239.357L361.314 238.403ZM313.55 201.807C311.279 200.68 309.289 199.691 307.667 198.832C306.031 197.966 304.831 197.262 304.11 196.707L302.89 198.293C303.759 198.961 305.095 199.733 306.731 200.6C308.381 201.474 310.398 202.475 312.661 203.598L313.55 201.807ZM303.54 198.499C329.143 197.467 349.001 201.823 363.277 207.491L364.015 205.632C349.472 199.858 329.335 195.457 303.46 196.501L303.54 198.499ZM362.575 206.311C362.606 206.46 362.636 206.608 362.666 206.757L364.627 206.367C364.596 206.211 364.565 206.056 364.532 205.901L362.575 206.311ZM330.998 177.987C341.212 179.895 348.422 183.805 353.41 188.788C358.401 193.773 361.228 199.892 362.575 206.312L364.532 205.901C363.121 199.177 360.14 192.684 354.824 187.373C349.505 182.06 341.908 177.991 331.366 176.021L330.998 177.987ZM315.7 176.386C322.505 176.575 328.108 177.37 330.973 177.982L331.391 176.026C328.394 175.386 322.669 174.579 315.756 174.386L315.7 176.386ZM330.83 160.144C323.006 163.082 318.654 166.229 316.416 169.018C314.199 171.782 313.962 174.368 314.868 175.896L316.588 174.876C316.279 174.355 316.032 172.694 317.976 170.27C319.9 167.871 323.882 164.89 331.533 162.017L330.83 160.144ZM376.886 169.768C369.539 158.054 350.449 152.778 330.83 160.144L331.533 162.017C350.605 154.856 368.522 160.196 375.192 170.831L376.886 169.768ZM384.348 187.02C382.351 181.358 380.045 174.803 376.886 169.768L375.192 170.831C378.209 175.641 380.446 181.968 382.462 187.686L384.348 187.02ZM390.953 199.751C390.616 199.733 390.181 199.535 389.634 198.934C389.09 198.336 388.529 197.439 387.945 196.259C386.776 193.899 385.63 190.655 384.348 187.02L382.462 187.686C383.729 191.277 384.918 194.653 386.153 197.146C386.77 198.393 387.428 199.481 388.155 200.28C388.88 201.076 389.769 201.689 390.843 201.748L390.953 199.751ZM392.219 199.832C391.79 199.803 391.366 199.774 390.953 199.751L390.843 201.748C391.242 201.77 391.654 201.798 392.083 201.827L392.219 199.832ZM391.837 195.566C392.294 196.401 392.708 197.16 393.024 197.839C393.348 198.534 393.521 199.049 393.559 199.404C393.577 199.572 393.559 199.651 393.551 199.675C393.548 199.683 393.551 199.682 393.535 199.694C393.454 199.751 393.124 199.893 392.219 199.832L392.083 201.827C393.101 201.896 394.029 201.799 394.697 201.321C395.471 200.768 395.627 199.925 395.548 199.19C395.473 198.491 395.179 197.728 394.837 196.995C394.489 196.246 394.04 195.426 393.592 194.606L391.837 195.566ZM391.42 194.8C391.56 195.059 391.7 195.315 391.837 195.566L393.592 194.606C393.455 194.355 393.317 194.103 393.18 193.849L391.42 194.8ZM387.375 173.093C387.375 182.857 390.027 191.539 391.38 194.716L393.22 193.933C391.956 190.964 389.375 182.549 389.375 173.093H387.375ZM352.919 140.002C362.166 141.222 370.802 146.592 377.141 153.183C383.509 159.805 387.375 167.46 387.375 173.093H389.375C389.375 166.714 385.11 158.584 378.582 151.797C372.025 144.979 362.998 139.314 353.181 138.019L352.919 140.002ZM314.694 149.298C319.113 145.858 323.977 142.929 330.06 141.158C336.143 139.387 343.5 138.76 352.919 140.002L353.181 138.019C343.535 136.747 335.893 137.377 329.501 139.238C323.107 141.099 318.019 144.176 313.466 147.72L314.694 149.298ZM309.189 154.022C311.004 152.388 312.794 150.778 314.694 149.298L313.466 147.72C311.5 149.251 309.657 150.91 307.851 152.536L309.189 154.022ZM283.466 165.431C295.791 166.114 302.596 159.957 309.189 154.022L307.851 152.536C301.256 158.472 295.005 164.067 283.576 163.434L283.466 165.431ZM275.408 159.066C276.416 163.523 280.805 165.146 283.414 165.427L283.628 163.439C281.317 163.19 278.079 161.812 277.359 158.625L275.408 159.066ZM309.443 131.034C309.792 133.814 308.756 136.612 306.668 139.375C304.578 142.14 301.495 144.786 297.937 147.208C290.825 152.049 282.008 155.869 276.06 157.899L276.706 159.792C282.764 157.724 291.758 153.834 299.063 148.861C302.714 146.375 305.991 143.587 308.263 140.581C310.537 137.573 311.864 134.262 311.428 130.785L309.443 131.034ZM307.585 119.848C308.203 123.075 308.907 126.761 309.443 131.034L311.428 130.785C310.883 126.441 310.167 122.698 309.55 119.472L307.585 119.848ZM309.804 101.639C307.307 103.674 306.338 106.154 306.217 109.18C306.1 112.115 306.782 115.645 307.585 119.848L309.55 119.472C308.729 115.183 308.11 111.913 308.216 109.259C308.318 106.696 309.094 104.798 311.067 103.189L309.804 101.639ZM320.516 101.889C319.473 100.852 317.954 99.8404 316.076 99.5767C314.161 99.3079 312.014 99.8372 309.804 101.639L311.067 103.189C312.907 101.69 314.507 101.376 315.798 101.557C317.125 101.744 318.268 102.474 319.106 103.307L320.516 101.889ZM320.904 105.81C321.852 104.542 321.505 102.873 320.516 101.889L319.106 103.307C319.526 103.726 319.544 104.289 319.302 104.613L320.904 105.81ZM319.642 106.818C320.205 106.615 320.619 106.192 320.904 105.81L319.302 104.613C319.124 104.851 318.999 104.924 318.963 104.937L319.642 106.818ZM320.174 103.707C319.909 103.491 319.557 103.355 319.164 103.403C318.801 103.447 318.532 103.632 318.362 103.793C318.035 104.103 317.848 104.53 317.761 104.882C317.681 105.204 317.614 105.75 317.881 106.236C318.038 106.522 318.309 106.775 318.694 106.879C319.047 106.974 319.382 106.912 319.642 106.818L318.963 104.937C318.935 104.947 319.04 104.901 319.215 104.948C319.305 104.972 319.395 105.018 319.474 105.083C319.552 105.146 319.602 105.216 319.634 105.274C319.665 105.33 319.678 105.375 319.684 105.4C319.687 105.414 319.688 105.424 319.689 105.43C319.69 105.436 319.69 105.44 319.69 105.44C319.69 105.441 319.69 105.433 319.692 105.418C319.693 105.403 319.697 105.385 319.702 105.363C319.713 105.318 319.73 105.276 319.746 105.245C319.764 105.211 319.767 105.217 319.738 105.245C319.712 105.269 319.603 105.364 319.406 105.388C319.304 105.4 319.201 105.39 319.105 105.36C319.012 105.33 318.946 105.287 318.906 105.254L320.174 103.707ZM320.454 104.008C320.399 103.941 320.34 103.874 320.279 103.807L318.801 105.154C318.843 105.2 318.883 105.246 318.92 105.291L320.454 104.008ZM318.906 105.254C318.863 105.219 318.849 105.194 318.856 105.205L320.518 104.093C320.428 103.959 320.316 103.823 320.174 103.707L318.906 105.254ZM317.02 105.418C317.161 104.765 317.341 104.485 317.441 104.381C317.503 104.317 317.528 104.316 317.58 104.32C317.682 104.328 317.864 104.387 318.115 104.553C318.355 104.712 318.596 104.929 318.801 105.154L320.279 103.807C319.991 103.491 319.628 103.157 319.22 102.886C318.822 102.622 318.312 102.373 317.742 102.327C317.123 102.276 316.499 102.475 315.999 102.995C315.538 103.475 315.244 104.164 315.065 104.998L317.02 105.418ZM320.479 106.307C319.513 106.591 318.372 106.758 317.617 106.593C317.259 106.516 317.116 106.393 317.056 106.304C317.003 106.225 316.896 105.994 317.02 105.418L315.065 104.998C314.87 105.903 314.942 106.744 315.397 107.421C315.847 108.089 316.544 108.407 317.193 108.548C318.45 108.821 319.988 108.536 321.043 108.225L320.479 106.307ZM320.843 106.148C320.749 106.209 320.629 106.262 320.479 106.307L321.043 108.225C321.333 108.14 321.636 108.016 321.927 107.829L320.843 106.148ZM321.468 103.085C322.179 103.871 322.153 104.438 322.005 104.841C321.82 105.346 321.346 105.824 320.843 106.148L321.927 107.829C322.62 107.382 323.489 106.603 323.883 105.529C324.314 104.353 324.103 103.018 322.953 101.744L321.468 103.085ZM305.631 99.1942C310.522 97.9757 313.881 98.3378 316.279 99.2617C318.685 100.189 320.239 101.724 321.468 103.085L322.953 101.744C321.659 100.311 319.848 98.4937 316.998 97.3954C314.139 96.2939 310.349 95.9577 305.147 97.2535L305.631 99.1942ZM298.52 115.068C298.104 112.998 297.583 109.546 298.337 106.345C298.71 104.76 299.389 103.269 300.523 102.034C301.651 100.806 303.277 99.7805 305.631 99.1942L305.147 97.2535C302.455 97.9242 300.471 99.1341 299.05 100.682C297.634 102.223 296.823 104.049 296.39 105.887C295.532 109.53 296.133 113.342 296.559 115.462L298.52 115.068ZM294.404 135.712C296.934 132.451 298.166 128.349 298.67 124.582C299.175 120.812 298.963 117.278 298.52 115.068L296.559 115.462C296.956 117.442 297.165 120.753 296.688 124.316C296.211 127.883 295.06 131.603 292.824 134.487L294.404 135.712ZM270.676 145.305C273.775 144.786 278.653 143.698 283.25 142.114C285.549 141.322 287.801 140.399 289.733 139.349C291.65 138.307 293.328 137.101 294.404 135.712L292.824 134.487C291.994 135.557 290.595 136.604 288.778 137.592C286.975 138.571 284.835 139.453 282.599 140.223C278.126 141.764 273.359 142.827 270.345 143.332L270.676 145.305ZM271.602 112.366C272.444 117.141 272.773 128.7 269.532 144.113L271.489 144.524C274.769 128.929 274.469 117.105 273.572 112.018L271.602 112.366ZM198.242 72.6808C208.176 67.5868 223.594 63.5592 237.942 67.7424C252.185 71.8947 265.644 84.2203 271.609 112.399L273.566 111.985C267.486 83.2666 253.614 70.2281 238.502 65.8223C223.496 61.4474 207.535 65.6678 197.329 70.9012L198.242 72.6808ZM197.789 72.9755C197.932 72.8595 198.075 72.7663 198.242 72.6808L197.329 70.9012C197.042 71.0486 196.781 71.2172 196.528 71.4228L197.789 72.9755ZM263.715 165.001C263.591 170.594 265.568 182.646 274.722 190.878L276.059 189.391C267.495 181.689 265.597 170.304 265.715 165.045L263.715 165.001ZM197.952 165.298C201.709 163.125 205.555 157.67 204.046 148.898L202.075 149.237C203.448 157.22 199.952 161.831 196.951 163.567L197.952 165.298ZM118.623 134.8L110.213 129.772L109.186 131.488L117.597 136.517L118.623 134.8ZM168.459 160.814C169.029 162.679 168.909 165.442 166.675 167.679C164.415 169.944 159.801 171.866 150.949 171.535L150.875 173.534C159.966 173.873 165.258 171.93 168.091 169.092C170.951 166.227 171.111 162.648 170.372 160.23L168.459 160.814ZM87.1152 256.922C86.2472 253.69 85.3534 248.438 85.5019 243.249C85.6518 238.011 86.8557 233.101 89.9144 230.257L88.5523 228.792C84.8825 232.205 83.6565 237.818 83.5027 243.191C83.3476 248.613 84.2761 254.061 85.1837 257.441L87.1152 256.922ZM164.309 187.722C165.215 188.05 166.079 188.708 166.309 189.514C166.508 190.21 166.357 191.536 163.997 193.567L165.302 195.083C167.876 192.867 168.754 190.794 168.233 188.966C167.743 187.249 166.14 186.258 164.99 185.842L164.309 187.722ZM163.997 193.567C159.007 197.861 153.953 203.847 152.293 206.668L154.017 207.682C155.534 205.103 160.424 199.281 165.302 195.083L163.997 193.567ZM190.003 219.262C193.937 214.45 198.394 211.503 202.221 210.369L201.653 208.451C197.363 209.722 192.586 212.943 188.455 217.996L190.003 219.262ZM220.866 336.391C220.994 336.264 221.073 336.119 221.102 336.065C221.146 335.984 221.188 335.894 221.227 335.804C221.305 335.622 221.387 335.397 221.462 335.147C221.609 334.655 221.749 334.004 221.758 333.345C221.766 332.709 221.653 331.903 221.123 331.27C220.546 330.58 219.67 330.316 218.641 330.412L218.827 332.403C219.412 332.349 219.554 332.511 219.589 332.553C219.671 332.651 219.763 332.883 219.758 333.32C219.752 333.734 219.66 334.192 219.546 334.573C219.49 334.76 219.433 334.912 219.389 335.016C219.366 335.068 219.351 335.098 219.346 335.109C219.324 335.147 219.36 335.067 219.455 334.974L220.866 336.391ZM217.184 330.928C216.158 331.604 215.082 332.76 214.91 334.37C214.734 336.012 215.533 337.785 217.525 339.597L218.871 338.118C217.135 336.539 216.817 335.348 216.899 334.582C216.984 333.784 217.54 333.089 218.284 332.599L217.184 330.928ZM248.16 254.725C247.033 249.771 246.508 244.429 246.342 239.916C246.175 235.381 246.373 231.772 246.656 230.268L244.69 229.898C244.365 231.628 244.175 235.418 244.343 239.99C244.513 244.585 245.047 250.058 246.209 255.168L248.16 254.725ZM352.562 265.582C356.983 271.651 361.214 277.784 362.155 283.873L364.131 283.568C363.104 276.914 358.538 270.389 354.179 264.404L352.562 265.582ZM302.018 196.751C299.816 195.287 298.263 193.902 297.561 192.702L295.835 193.712C296.781 195.328 298.664 196.923 300.91 198.417L302.018 196.751ZM302.285 197.014C301.856 196.395 301.003 194.403 301.593 192.054L299.653 191.567C298.897 194.581 299.951 197.159 300.643 198.155L302.285 197.014ZM313.006 197C314.63 196.924 316.675 197.041 318.946 197.457L319.307 195.49C316.898 195.048 314.701 194.918 312.912 195.002L313.006 197ZM322.12 206.152C321.297 205.856 320.412 205.528 319.484 205.172L318.769 207.04C319.71 207.4 320.607 207.733 321.444 208.034L322.12 206.152ZM318.675 195.582C318.146 195.849 317.588 196.265 317.104 196.825L318.618 198.132C318.929 197.772 319.278 197.518 319.578 197.366L318.675 195.582ZM317.857 206.066C318.006 206.28 318.165 206.496 318.334 206.715L319.92 205.497C319.768 205.3 319.627 205.107 319.494 204.918L317.857 206.066ZM339.383 250.407C342.88 253.314 346.119 256.369 348.998 259.531L350.477 258.184C347.528 254.946 344.22 251.828 340.662 248.869L339.383 250.407ZM361.239 238.508C359.341 235.347 357.188 232.261 354.756 229.294L353.21 230.562C355.577 233.45 357.674 236.456 359.524 239.537L361.239 238.508ZM315.756 174.386C310.507 174.24 304.552 174.448 298.57 175.36L298.871 177.337C304.709 176.447 310.54 176.242 315.7 176.386L315.756 174.386ZM297.661 175.358C296.813 175.202 295.897 174.982 295.072 174.701C294.23 174.414 293.555 174.089 293.133 173.755C292.703 173.416 292.734 173.244 292.74 173.208C292.766 173.066 292.969 172.629 294.006 171.961L292.924 170.28C291.781 171.015 290.955 171.851 290.773 172.849C290.572 173.954 291.216 174.791 291.893 175.325C292.578 175.866 293.503 176.279 294.427 176.594C295.367 176.914 296.382 177.157 297.301 177.325L297.661 175.358ZM294.65 171.683L296.131 171.261L295.583 169.338L294.102 169.759L294.65 171.683ZM277.359 158.625C277.062 157.312 277.153 155.584 278.008 153.334L276.138 152.624C275.181 155.145 275.004 157.28 275.408 159.066L277.359 158.625ZM269.532 144.113C268.278 150.074 266.492 156.605 263.998 163.536L265.88 164.213C268.406 157.192 270.217 150.572 271.489 144.524L269.532 144.113ZM318.946 197.457C320.527 197.747 322.212 198.181 323.937 198.793L324.605 196.908C322.775 196.259 320.987 195.798 319.307 195.49L318.946 197.457ZM319.484 205.172C314.258 203.171 307.725 200.325 303.028 197.401L301.972 199.099C306.832 202.124 313.506 205.025 318.769 207.04L319.484 205.172ZM303.028 197.401C302.68 197.184 302.343 196.968 302.018 196.751L300.91 198.417C301.254 198.645 301.608 198.873 301.972 199.099L303.028 197.401ZM304.423 197.156C303.684 197.178 303.011 197.209 302.426 197.253L302.574 199.247C303.12 199.207 303.761 199.177 304.481 199.155L304.423 197.156ZM294.006 171.961C294.185 171.846 294.401 171.754 294.65 171.683L294.102 169.759C293.711 169.871 293.304 170.035 292.924 170.28L294.006 171.961ZM298.57 175.36C298.249 175.409 297.944 175.409 297.661 175.358L297.301 177.325C297.838 177.423 298.37 177.413 298.871 177.337L298.57 175.36ZM218.641 330.412C218.113 330.461 217.612 330.647 217.184 330.929L218.284 332.599C218.453 332.487 218.643 332.42 218.827 332.403L218.641 330.412ZM265.715 165.045C265.721 164.778 265.777 164.5 265.88 164.213L263.998 163.536C263.835 163.99 263.727 164.482 263.715 165.001L265.715 165.045Z" fill="black"/>
</g>
<g filter="url(#filter30_d_5_26)">
<path d="M204.219 79.8705C197.159 72.2635 202.891 64.1046 206.64 60.9761C205.837 58.6391 204.346 53.5416 204.804 51.8474C205.198 49.6375 207.354 46.2739 213.999 43.7455C223.88 39.985 236.148 39.1081 237.338 47.5095L236.291 57.6866C238.522 58.2735 241.099 60.1498 242.197 61.0859C242.256 61.136 242.32 61.1782 242.385 61.2196C243.184 61.7269 243.188 62.8579 243.372 63.5449C243.372 63.5449 243.082 72.3102 234.374 78.0591C230.121 80.8661 222.182 83.3946 213.183 83.3779C209.752 83.3716 206.571 82.405 204.219 79.8705Z" fill="#4A4A4A"/>
<path d="M206.64 60.9761C202.891 64.1046 197.159 72.2635 204.219 79.8705C206.571 82.405 209.752 83.3716 213.183 83.3779M206.64 60.9761C207.318 62.919 207.711 66.3548 207.822 67.8298M206.64 60.9761C205.837 58.6391 204.346 53.5416 204.804 51.8474M236.291 57.6866C238.522 58.2735 241.099 60.1498 242.197 61.0859C242.256 61.136 242.32 61.1782 242.385 61.2196C243.184 61.7269 243.188 62.8579 243.372 63.5449M236.291 57.6866L237.338 47.5095M236.291 57.6866C236.15 58.7926 236.468 60.7184 236.88 62.531M207.822 67.8298C207.504 69.9801 207.838 74.7404 211.723 76.5786C216.579 78.8765 221.776 78.5114 226.344 77.0344C230.818 75.5874 237.27 69.3216 237.777 66.1907C237.798 66.0638 237.782 65.9373 237.745 65.8142C237.492 64.978 237.164 63.7815 236.88 62.531M207.822 67.8298C208.295 70.1675 213.805 74.3966 224.84 71.6839C228.297 70.8341 234.533 67.489 236.88 62.531M237.338 47.5095C236.851 51.3068 224.776 61.0415 208.171 56.8018C208.111 56.7864 208.051 56.7652 207.995 56.7381C206.205 55.8716 204.392 54.1656 204.804 51.8474M237.338 47.5095C236.148 39.1081 223.88 39.985 213.999 43.7455C207.354 46.2739 205.198 49.6375 204.804 51.8474M243.372 63.5449C243.372 63.5449 243.082 72.3102 234.374 78.0591C230.121 80.8661 222.182 83.3946 213.183 83.3779M243.372 63.5449C242.041 69.8969 234.548 82.2918 213.183 83.3779" stroke="black" stroke-width="2"/>
<path d="M211.723 76.5787C207.838 74.7404 207.504 69.9802 207.822 67.8299C208.295 70.1675 213.805 74.3966 224.84 71.6839C228.297 70.8342 234.534 67.4891 236.88 62.531C237.186 63.8775 237.543 65.1614 237.801 66.0003C237.538 69.0599 230.911 75.5575 226.344 77.0344C221.777 78.5114 216.579 78.8765 211.723 76.5787Z" fill="#FF0A0A" stroke="black" stroke-width="2"/>
</g>
<path d="M253.785 103.816C254.669 107.112 254.53 110.302 253.643 112.781C252.754 115.265 251.158 116.943 249.164 117.477C247.17 118.012 244.949 117.357 242.937 115.65C240.928 113.946 239.214 111.253 238.331 107.957C237.447 104.661 237.586 101.471 238.473 98.9913C239.362 96.5073 240.958 94.8295 242.952 94.2952C244.946 93.7609 247.167 94.4161 249.179 96.1227C251.187 97.8262 252.902 100.52 253.785 103.816Z" fill="#F5F5F5" stroke="black" stroke-width="2"/>
<ellipse cx="247.76" cy="111.111" rx="4.29923" ry="6.21" transform="rotate(-15 247.76 111.111)" fill="black"/>
<path d="M221.785 108.816C222.669 112.112 222.53 115.302 221.643 117.781C220.754 120.265 219.158 121.943 217.164 122.477C215.17 123.012 212.949 122.357 210.937 120.65C208.928 118.946 207.214 116.253 206.331 112.957C205.447 109.661 205.586 106.471 206.473 103.991C207.362 101.507 208.958 99.8295 210.952 99.2952C212.946 98.7609 215.167 99.4161 217.179 101.123C219.187 102.826 220.902 105.52 221.785 108.816Z" fill="#F5F5F5" stroke="black" stroke-width="2"/>
<path d="M220.913 115.224C221.8 118.537 220.661 121.72 218.367 122.335C216.074 122.95 213.495 120.762 212.607 117.449C211.72 114.137 212.859 110.953 215.153 110.338C217.446 109.724 220.025 111.911 220.913 115.224Z" fill="black"/>
<defs>
<filter id="filter0_d_5_26" x="612.576" y="196.595" width="198.879" height="204.833" filterUnits="userSpaceOnUse" color-interpolation-filters="sRGB">
<feFlood flood-opacity="0" result="BackgroundImageFix"/>
<feColorMatrix in="SourceAlpha" type="matrix" values="0 0 0 0 0 0 0 0 0 0 0 0 0 0 0 0 0 0 127 0" result="hardAlpha"/>
<feOffset dy="4"/>
<feGaussianBlur stdDeviation="2"/>
<feComposite in2="hardAlpha" operator="out"/>
<feColorMatrix type="matrix" values="0 0 0 0 0 0 0 0 0 0 0 0 0 0 0 0 0 0 0.25 0"/>
<feBlend mode="normal" in2="BackgroundImageFix" result="effect1_dropShadow_5_26"/>
<feBlend mode="normal" in="SourceGraphic" in2="effect1_dropShadow_5_26" result="shape"/>
</filter>
<filter id="filter1_d_5_26" x="376.433" y="202.409" width="166.153" height="214.171" filterUnits="userSpaceOnUse" color-interpolation-filters="sRGB">
<feFlood flood-opacity="0" result="BackgroundImageFix"/>
<feColorMatrix in="SourceAlpha" type="matrix" values="0 0 0 0 0 0 0 0 0 0 0 0 0 0 0 0 0 0 127 0" result="hardAlpha"/>
<feOffset dy="4"/>
<feGaussianBlur stdDeviation="2"/>
<feComposite in2="hardAlpha" operator="out"/>
<feColorMatrix type="matrix" values="0 0 0 0 0 0 0 0 0 0 0 0 0 0 0 0 0 0 0.25 0"/>
<feBlend mode="normal" in2="BackgroundImageFix" result="effect1_dropShadow_5_26"/>
<feBlend mode="normal" in="SourceGraphic" in2="effect1_dropShadow_5_26" result="shape"/>
</filter>
<filter id="filter2_d_5_26" x="517.464" y="204.453" width="168.157" height="214.074" filterUnits="userSpaceOnUse" color-interpolation-filters="sRGB">
<feFlood flood-opacity="0" result="BackgroundImageFix"/>
<feColorMatrix in="SourceAlpha" type="matrix" values="0 0 0 0 0 0 0 0 0 0 0 0 0 0 0 0 0 0 127 0" result="hardAlpha"/>
<feOffset dy="4"/>
<feGaussianBlur stdDeviation="2"/>
<feComposite in2="hardAlpha" operator="out"/>
<feColorMatrix type="matrix" values="0 0 0 0 0 0 0 0 0 0 0 0 0 0 0 0 0 0 0.25 0"/>
<feBlend mode="normal" in2="BackgroundImageFix" result="effect1_dropShadow_5_26"/>
<feBlend mode="normal" in="SourceGraphic" in2="effect1_dropShadow_5_26" result="shape"/>
</filter>
<filter id="filter3_d_5_26" x="258" y="196.545" width="149.5" height="222.019" filterUnits="userSpaceOnUse" color-interpolation-filters="sRGB">
<feFlood flood-opacity="0" result="BackgroundImageFix"/>
<feColorMatrix in="SourceAlpha" type="matrix" values="0 0 0 0 0 0 0 0 0 0 0 0 0 0 0 0 0 0 127 0" result="hardAlpha"/>
<feOffset dy="4"/>
<feGaussianBlur stdDeviation="2"/>
<feComposite in2="hardAlpha" operator="out"/>
<feColorMatrix type="matrix" values="0 0 0 0 0 0 0 0 0 0 0 0 0 0 0 0 0 0 0.25 0"/>
<feBlend mode="normal" in2="BackgroundImageFix" result="effect1_dropShadow_5_26"/>
<feBlend mode="normal" in="SourceGraphic" in2="effect1_dropShadow_5_26" result="shape"/>
</filter>
<filter id="filter4_d_5_26" x="142.439" y="201.676" width="145.544" height="216.395" filterUnits="userSpaceOnUse" color-interpolation-filters="sRGB">
<feFlood flood-opacity="0" result="BackgroundImageFix"/>
<feColorMatrix in="SourceAlpha" type="matrix" values="0 0 0 0 0 0 0 0 0 0 0 0 0 0 0 0 0 0 127 0" result="hardAlpha"/>
<feOffset dy="4"/>
<feGaussianBlur stdDeviation="2"/>
<feComposite in2="hardAlpha" operator="out"/>
<feColorMatrix type="matrix" values="0 0 0 0 0 0 0 0 0 0 0 0 0 0 0 0 0 0 0.25 0"/>
<feBlend mode="normal" in2="BackgroundImageFix" result="effect1_dropShadow_5_26"/>
<feBlend mode="normal" in="SourceGraphic" in2="effect1_dropShadow_5_26" result="shape"/>
</filter>
<filter id="filter5_d_5_26" x="696" y="202" width="40" height="40" filterUnits="userSpaceOnUse" color-interpolation-filters="sRGB">
<feFlood flood-opacity="0" result="BackgroundImageFix"/>
<feColorMatrix in="SourceAlpha" type="matrix" values="0 0 0 0 0 0 0 0 0 0 0 0 0 0 0 0 0 0 127 0" result="hardAlpha"/>
<feOffset dy="2"/>
<feGaussianBlur stdDeviation="5"/>
<feComposite in2="hardAlpha" operator="out"/>
<feColorMatrix type="matrix" values="0 0 0 0 0 0 0 0 0 0 0 0 0 0 0 0 0 0 0.1 0"/>
<feBlend mode="normal" in2="BackgroundImageFix" result="effect1_dropShadow_5_26"/>
<feBlend mode="normal" in="SourceGraphic" in2="effect1_dropShadow_5_26" result="shape"/>
</filter>
<filter id="filter6_d_5_26" x="714" y="189" width="35" height="35" filterUnits="userSpaceOnUse" color-interpolation-filters="sRGB">
<feFlood flood-opacity="0" result="BackgroundImageFix"/>
<feColorMatrix in="SourceAlpha" type="matrix" values="0 0 0 0 0 0 0 0 0 0 0 0 0 0 0 0 0 0 127 0" result="hardAlpha"/>
<feOffset dy="2"/>
<feGaussianBlur stdDeviation="5"/>
<feComposite in2="hardAlpha" operator="out"/>
<feColorMatrix type="matrix" values="0 0 0 0 0 0 0 0 0 0 0 0 0 0 0 0 0 0 0.1 0"/>
<feBlend mode="normal" in2="BackgroundImageFix" result="effect1_dropShadow_5_26"/>
<feBlend mode="normal" in="SourceGraphic" in2="effect1_dropShadow_5_26" result="shape"/>
</filter>
<filter id="filter7_d_5_26" x="691" y="174" width="30" height="30" filterUnits="userSpaceOnUse" color-interpolation-filters="sRGB">
<feFlood flood-opacity="0" result="BackgroundImageFix"/>
<feColorMatrix in="SourceAlpha" type="matrix" values="0 0 0 0 0 0 0 0 0 0 0 0 0 0 0 0 0 0 127 0" result="hardAlpha"/>
<feOffset dy="2"/>
<feGaussianBlur stdDeviation="5"/>
<feComposite in2="hardAlpha" operator="out"/>
<feColorMatrix type="matrix" values="0 0 0 0 0 0 0 0 0 0 0 0 0 0 0 0 0 0 0.1 0"/>
<feBlend mode="normal" in2="BackgroundImageFix" result="effect1_dropShadow_5_26"/>
<feBlend mode="normal" in="SourceGraphic" in2="effect1_dropShadow_5_26" result="shape"/>
</filter>
<filter id="filter8_d_5_26" x="696" y="202" width="40" height="40" filterUnits="userSpaceOnUse" color-interpolation-filters="sRGB">
<feFlood flood-opacity="0" result="BackgroundImageFix"/>
<feColorMatrix in="SourceAlpha" type="matrix" values="0 0 0 0 0 0 0 0 0 0 0 0 0 0 0 0 0 0 127 0" result="hardAlpha"/>
<feOffset dy="2"/>
<feGaussianBlur stdDeviation="5"/>
<feComposite in2="hardAlpha" operator="out"/>
<feColorMatrix type="matrix" values="0 0 0 0 0 0 0 0 0 0 0 0 0 0 0 0 0 0 0.1 0"/>
<feBlend mode="normal" in2="BackgroundImageFix" result="effect1_dropShadow_5_26"/>
<feBlend mode="normal" in="SourceGraphic" in2="effect1_dropShadow_5_26" result="shape"/>
</filter>
<filter id="filter9_d_5_26" x="714" y="189" width="35" height="35" filterUnits="userSpaceOnUse" color-interpolation-filters="sRGB">
<feFlood flood-opacity="0" result="BackgroundImageFix"/>
<feColorMatrix in="SourceAlpha" type="matrix" values="0 0 0 0 0 0 0 0 0 0 0 0 0 0 0 0 0 0 127 0" result="hardAlpha"/>
<feOffset dy="2"/>
<feGaussianBlur stdDeviation="5"/>
<feComposite in2="hardAlpha" operator="out"/>
<feColorMatrix type="matrix" values="0 0 0 0 0 0 0 0 0 0 0 0 0 0 0 0 0 0 0.1 0"/>
<feBlend mode="normal" in2="BackgroundImageFix" result="effect1_dropShadow_5_26"/>
<feBlend mode="normal" in="SourceGraphic" in2="effect1_dropShadow_5_26" result="shape"/>
</filter>
<filter id="filter10_d_5_26" x="691" y="174" width="30" height="30" filterUnits="userSpaceOnUse" color-interpolation-filters="sRGB">
<feFlood flood-opacity="0" result="BackgroundImageFix"/>
<feColorMatrix in="SourceAlpha" type="matrix" values="0 0 0 0 0 0 0 0 0 0 0 0 0 0 0 0 0 0 127 0" result="hardAlpha"/>
<feOffset dy="2"/>
<feGaussianBlur stdDeviation="5"/>
<feComposite in2="hardAlpha" operator="out"/>
<feColorMatrix type="matrix" values="0 0 0 0 0 0 0 0 0 0 0 0 0 0 0 0 0 0 0.1 0"/>
<feBlend mode="normal" in2="BackgroundImageFix" result="effect1_dropShadow_5_26"/>
<feBlend mode="normal" in="SourceGraphic" in2="effect1_dropShadow_5_26" result="shape"/>
</filter>
<filter id="filter11_d_5_26" x="397" y="169" width="40" height="40" filterUnits="userSpaceOnUse" color-interpolation-filters="sRGB">
<feFlood flood-opacity="0" result="BackgroundImageFix"/>
<feColorMatrix in="SourceAlpha" type="matrix" values="0 0 0 0 0 0 0 0 0 0 0 0 0 0 0 0 0 0 127 0" result="hardAlpha"/>
<feOffset dy="2"/>
<feGaussianBlur stdDeviation="5"/>
<feComposite in2="hardAlpha" operator="out"/>
<feColorMatrix type="matrix" values="0 0 0 0 0 0 0 0 0 0 0 0 0 0 0 0 0 0 0.1 0"/>
<feBlend mode="normal" in2="BackgroundImageFix" result="effect1_dropShadow_5_26"/>
<feBlend mode="normal" in="SourceGraphic" in2="effect1_dropShadow_5_26" result="shape"/>
</filter>
<filter id="filter12_d_5_26" x="415" y="156" width="35" height="35" filterUnits="userSpaceOnUse" color-interpolation-filters="sRGB">
<feFlood flood-opacity="0" result="BackgroundImageFix"/>
<feColorMatrix in="SourceAlpha" type="matrix" values="0 0 0 0 0 0 0 0 0 0 0 0 0 0 0 0 0 0 127 0" result="hardAlpha"/>
<feOffset dy="2"/>
<feGaussianBlur stdDeviation="5"/>
<feComposite in2="hardAlpha" operator="out"/>
<feColorMatrix type="matrix" values="0 0 0 0 0 0 0 0 0 0 0 0 0 0 0 0 0 0 0.1 0"/>
<feBlend mode="normal" in2="BackgroundImageFix" result="effect1_dropShadow_5_26"/>
<feBlend mode="normal" in="SourceGraphic" in2="effect1_dropShadow_5_26" result="shape"/>
</filter>
<filter id="filter13_d_5_26" x="392" y="141" width="30" height="30" filterUnits="userSpaceOnUse" color-interpolation-filters="sRGB">
<feFlood flood-opacity="0" result="BackgroundImageFix"/>
<feColorMatrix in="SourceAlpha" type="matrix" values="0 0 0 0 0 0 0 0 0 0 0 0 0 0 0 0 0 0 127 0" result="hardAlpha"/>
<feOffset dy="2"/>
<feGaussianBlur stdDeviation="5"/>
<feComposite in2="hardAlpha" operator="out"/>
<feColorMatrix type="matrix" values="0 0 0 0 0 0 0 0 0 0 0 0 0 0 0 0 0 0 0.1 0"/>
<feBlend mode="normal" in2="BackgroundImageFix" result="effect1_dropShadow_5_26"/>
<feBlend mode="normal" in="SourceGraphic" in2="effect1_dropShadow_5_26" result="shape"/>
</filter>
<filter id="filter14_d_5_26" x="397" y="169" width="40" height="40" filterUnits="userSpaceOnUse" color-interpolation-filters="sRGB">
<feFlood flood-opacity="0" result="BackgroundImageFix"/>
<feColorMatrix in="SourceAlpha" type="matrix" values="0 0 0 0 0 0 0 0 0 0 0 0 0 0 0 0 0 0 127 0" result="hardAlpha"/>
<feOffset dy="2"/>
<feGaussianBlur stdDeviation="5"/>
<feComposite in2="hardAlpha" operator="out"/>
<feColorMatrix type="matrix" values="0 0 0 0 0 0 0 0 0 0 0 0 0 0 0 0 0 0 0.1 0"/>
<feBlend mode="normal" in2="BackgroundImageFix" result="effect1_dropShadow_5_26"/>
<feBlend mode="normal" in="SourceGraphic" in2="effect1_dropShadow_5_26" result="shape"/>
</filter>
<filter id="filter15_d_5_26" x="415" y="156" width="35" height="35" filterUnits="userSpaceOnUse" color-interpolation-filters="sRGB">
<feFlood flood-opacity="0" result="BackgroundImageFix"/>
<feColorMatrix in="SourceAlpha" type="matrix" values="0 0 0 0 0 0 0 0 0 0 0 0 0 0 0 0 0 0 127 0" result="hardAlpha"/>
<feOffset dy="2"/>
<feGaussianBlur stdDeviation="5"/>
<feComposite in2="hardAlpha" operator="out"/>
<feColorMatrix type="matrix" values="0 0 0 0 0 0 0 0 0 0 0 0 0 0 0 0 0 0 0.1 0"/>
<feBlend mode="normal" in2="BackgroundImageFix" result="effect1_dropShadow_5_26"/>
<feBlend mode="normal" in="SourceGraphic" in2="effect1_dropShadow_5_26" result="shape"/>
</filter>
<filter id="filter16_d_5_26" x="392" y="141" width="30" height="30" filterUnits="userSpaceOnUse" color-interpolation-filters="sRGB">
<feFlood flood-opacity="0" result="BackgroundImageFix"/>
<feColorMatrix in="SourceAlpha" type="matrix" values="0 0 0 0 0 0 0 0 0 0 0 0 0 0 0 0 0 0 127 0" result="hardAlpha"/>
<feOffset dy="2"/>
<feGaussianBlur stdDeviation="5"/>
<feComposite in2="hardAlpha" operator="out"/>
<feColorMatrix type="matrix" values="0 0 0 0 0 0 0 0 0 0 0 0 0 0 0 0 0 0 0.1 0"/>
<feBlend mode="normal" in2="BackgroundImageFix" result="effect1_dropShadow_5_26"/>
<feBlend mode="normal" in="SourceGraphic" in2="effect1_dropShadow_5_26" result="shape"/>
</filter>
<filter id="filter17_d_5_26" x="100" y="300" width="40" height="40" filterUnits="userSpaceOnUse" color-interpolation-filters="sRGB">
<feFlood flood-opacity="0" result="BackgroundImageFix"/>
<feColorMatrix in="SourceAlpha" type="matrix" values="0 0 0 0 0 0 0 0 0 0 0 0 0 0 0 0 0 0 127 0" result="hardAlpha"/>
<feOffset dy="2"/>
<feGaussianBlur stdDeviation="5"/>
<feComposite in2="hardAlpha" operator="out"/>
<feColorMatrix type="matrix" values="0 0 0 0 0 0 0 0 0 0 0 0 0 0 0 0 0 0 0.1 0"/>
<feBlend mode="normal" in2="BackgroundImageFix" result="effect1_dropShadow_5_26"/>
<feBlend mode="normal" in="SourceGraphic" in2="effect1_dropShadow_5_26" result="shape"/>
</filter>
<filter id="filter18_d_5_26" x="118" y="287" width="35" height="35" filterUnits="userSpaceOnUse" color-interpolation-filters="sRGB">
<feFlood flood-opacity="0" result="BackgroundImageFix"/>
<feColorMatrix in="SourceAlpha" type="matrix" values="0 0 0 0 0 0 0 0 0 0 0 0 0 0 0 0 0 0 127 0" result="hardAlpha"/>
<feOffset dy="2"/>
<feGaussianBlur stdDeviation="5"/>
<feComposite in2="hardAlpha" operator="out"/>
<feColorMatrix type="matrix" values="0 0 0 0 0 0 0 0 0 0 0 0 0 0 0 0 0 0 0.1 0"/>
<feBlend mode="normal" in2="BackgroundImageFix" result="effect1_dropShadow_5_26"/>
<feBlend mode="normal" in="SourceGraphic" in2="effect1_dropShadow_5_26" result="shape"/>
</filter>
<filter id="filter19_d_5_26" x="95" y="272" width="30" height="30" filterUnits="userSpaceOnUse" color-interpolation-filters="sRGB">
<feFlood flood-opacity="0" result="BackgroundImageFix"/>
<feColorMatrix in="SourceAlpha" type="matrix" values="0 0 0 0 0 0 0 0 0 0 0 0 0 0 0 0 0 0 127 0" result="hardAlpha"/>
<feOffset dy="2"/>
<feGaussianBlur stdDeviation="5"/>
<feComposite in2="hardAlpha" operator="out"/>
<feColorMatrix type="matrix" values="0 0 0 0 0 0 0 0 0 0 0 0 0 0 0 0 0 0 0.1 0"/>
<feBlend mode="normal" in2="BackgroundImageFix" result="effect1_dropShadow_5_26"/>
<feBlend mode="normal" in="SourceGraphic" in2="effect1_dropShadow_5_26" result="shape"/>
</filter>
<filter id="filter20_d_5_26" x="130" y="77" width="40" height="40" filterUnits="userSpaceOnUse" color-interpolation-filters="sRGB">
<feFlood flood-opacity="0" result="BackgroundImageFix"/>
<feColorMatrix in="SourceAlpha" type="matrix" values="0 0 0 0 0 0 0 0 0 0 0 0 0 0 0 0 0 0 127 0" result="hardAlpha"/>
<feOffset dy="2"/>
<feGaussianBlur stdDeviation="5"/>
<feComposite in2="hardAlpha" operator="out"/>
<feColorMatrix type="matrix" values="0 0 0 0 0 0 0 0 0 0 0 0 0 0 0 0 0 0 0.1 0"/>
<feBlend mode="normal" in2="BackgroundImageFix" result="effect1_dropShadow_5_26"/>
<feBlend mode="normal" in="SourceGraphic" in2="effect1_dropShadow_5_26" result="shape"/>
</filter>
<filter id="filter21_d_5_26" x="148" y="64" width="35" height="35" filterUnits="userSpaceOnUse" color-interpolation-filters="sRGB">
<feFlood flood-opacity="0" result="BackgroundImageFix"/>
<feColorMatrix in="SourceAlpha" type="matrix" values="0 0 0 0 0 0 0 0 0 0 0 0 0 0 0 0 0 0 127 0" result="hardAlpha"/>
<feOffset dy="2"/>
<feGaussianBlur stdDeviation="5"/>
<feComposite in2="hardAlpha" operator="out"/>
<feColorMatrix type="matrix" values="0 0 0 0 0 0 0 0 0 0 0 0 0 0 0 0 0 0 0.1 0"/>
<feBlend mode="normal" in2="BackgroundImageFix" result="effect1_dropShadow_5_26"/>
<feBlend mode="normal" in="SourceGraphic" in2="effect1_dropShadow_5_26" result="shape"/>
</filter>
<filter id="filter22_d_5_26" x="125" y="49" width="30" height="30" filterUnits="userSpaceOnUse" color-interpolation-filters="sRGB">
<feFlood flood-opacity="0" result="BackgroundImageFix"/>
<feColorMatrix in="SourceAlpha" type="matrix" values="0 0 0 0 0 0 0 0 0 0 0 0 0 0 0 0 0 0 127 0" result="hardAlpha"/>
<feOffset dy="2"/>
<feGaussianBlur stdDeviation="5"/>
<feComposite in2="hardAlpha" operator="out"/>
<feColorMatrix type="matrix" values="0 0 0 0 0 0 0 0 0 0 0 0 0 0 0 0 0 0 0.1 0"/>
<feBlend mode="normal" in2="BackgroundImageFix" result="effect1_dropShadow_5_26"/>
<feBlend mode="normal" in="SourceGraphic" in2="effect1_dropShadow_5_26" result="shape"/>
</filter>
<filter id="filter23_d_5_26" x="130" y="77" width="40" height="40" filterUnits="userSpaceOnUse" color-interpolation-filters="sRGB">
<feFlood flood-opacity="0" result="BackgroundImageFix"/>
<feColorMatrix in="SourceAlpha" type="matrix" values="0 0 0 0 0 0 0 0 0 0 0 0 0 0 0 0 0 0 127 0" result="hardAlpha"/>
<feOffset dy="2"/>
<feGaussianBlur stdDeviation="5"/>
<feComposite in2="hardAlpha" operator="out"/>
<feColorMatrix type="matrix" values="0 0 0 0 0 0 0 0 0 0 0 0 0 0 0 0 0 0 0.1 0"/>
<feBlend mode="normal" in2="BackgroundImageFix" result="effect1_dropShadow_5_26"/>
<feBlend mode="normal" in="SourceGraphic" in2="effect1_dropShadow_5_26" result="shape"/>
</filter>
<filter id="filter24_d_5_26" x="148" y="64" width="35" height="35" filterUnits="userSpaceOnUse" color-interpolation-filters="sRGB">
<feFlood flood-opacity="0" result="BackgroundImageFix"/>
<feColorMatrix in="SourceAlpha" type="matrix" values="0 0 0 0 0 0 0 0 0 0 0 0 0 0 0 0 0 0 127 0" result="hardAlpha"/>
<feOffset dy="2"/>
<feGaussianBlur stdDeviation="5"/>
<feComposite in2="hardAlpha" operator="out"/>
<feColorMatrix type="matrix" values="0 0 0 0 0 0 0 0 0 0 0 0 0 0 0 0 0 0 0.1 0"/>
<feBlend mode="normal" in2="BackgroundImageFix" result="effect1_dropShadow_5_26"/>
<feBlend mode="normal" in="SourceGraphic" in2="effect1_dropShadow_5_26" result="shape"/>
</filter>
<filter id="filter25_d_5_26" x="125" y="49" width="30" height="30" filterUnits="userSpaceOnUse" color-interpolation-filters="sRGB">
<feFlood flood-opacity="0" result="BackgroundImageFix"/>
<feColorMatrix in="SourceAlpha" type="matrix" values="0 0 0 0 0 0 0 0 0 0 0 0 0 0 0 0 0 0 127 0" result="hardAlpha"/>
<feOffset dy="2"/>
<feGaussianBlur stdDeviation="5"/>
<feComposite in2="hardAlpha" operator="out"/>
<feColorMatrix type="matrix" values="0 0 0 0 0 0 0 0 0 0 0 0 0 0 0 0 0 0 0.1 0"/>
<feBlend mode="normal" in2="BackgroundImageFix" result="effect1_dropShadow_5_26"/>
<feBlend mode="normal" in="SourceGraphic" in2="effect1_dropShadow_5_26" result="shape"/>
</filter>
<filter id="filter26_d_5_26" x="683" y="385" width="40" height="40" filterUnits="userSpaceOnUse" color-interpolation-filters="sRGB">
<feFlood flood-opacity="0" result="BackgroundImageFix"/>
<feColorMatrix in="SourceAlpha" type="matrix" values="0 0 0 0 0 0 0 0 0 0 0 0 0 0 0 0 0 0 127 0" result="hardAlpha"/>
<feOffset dy="2"/>
<feGaussianBlur stdDeviation="5"/>
<feComposite in2="hardAlpha" operator="out"/>
<feColorMatrix type="matrix" values="0 0 0 0 0 0 0 0 0 0 0 0 0 0 0 0 0 0 0.1 0"/>
<feBlend mode="normal" in2="BackgroundImageFix" result="effect1_dropShadow_5_26"/>
<feBlend mode="normal" in="SourceGraphic" in2="effect1_dropShadow_5_26" result="shape"/>
</filter>
<filter id="filter27_d_5_26" x="691" y="362" width="35" height="35" filterUnits="userSpaceOnUse" color-interpolation-filters="sRGB">
<feFlood flood-opacity="0" result="BackgroundImageFix"/>
<feColorMatrix in="SourceAlpha" type="matrix" values="0 0 0 0 0 0 0 0 0 0 0 0 0 0 0 0 0 0 127 0" result="hardAlpha"/>
<feOffset dy="2"/>
<feGaussianBlur stdDeviation="5"/>
<feComposite in2="hardAlpha" operator="out"/>
<feColorMatrix type="matrix" values="0 0 0 0 0 0 0 0 0 0 0 0 0 0 0 0 0 0 0.1 0"/>
<feBlend mode="normal" in2="BackgroundImageFix" result="effect1_dropShadow_5_26"/>
<feBlend mode="normal" in="SourceGraphic" in2="effect1_dropShadow_5_26" result="shape"/>
</filter>
<filter id="filter28_d_5_26" x="676" y="370" width="30" height="30" filterUnits="userSpaceOnUse" color-interpolation-filters="sRGB">
<feFlood flood-opacity="0" result="BackgroundImageFix"/>
<feColorMatrix in="SourceAlpha" type="matrix" values="0 0 0 0 0 0 0 0 0 0 0 0 0 0 0 0 0 0 127 0" result="hardAlpha"/>
<feOffset dy="2"/>
<feGaussianBlur stdDeviation="5"/>
<feComposite in2="hardAlpha" operator="out"/>
<feColorMatrix type="matrix" values="0 0 0 0 0 0 0 0 0 0 0 0 0 0 0 0 0 0 0.1 0"/>
<feBlend mode="normal" in2="BackgroundImageFix" result="effect1_dropShadow_5_26"/>
<feBlend mode="normal" in="SourceGraphic" in2="effect1_dropShadow_5_26" result="shape"/>
</filter>
<filter id="filter29_d_5_26" x="51" y="63.9998" width="348.566" height="323" filterUnits="userSpaceOnUse" color-interpolation-filters="sRGB">
<feFlood flood-opacity="0" result="BackgroundImageFix"/>
<feColorMatrix in="SourceAlpha" type="matrix" values="0 0 0 0 0 0 0 0 0 0 0 0 0 0 0 0 0 0 127 0" result="hardAlpha"/>
<feOffset dy="4"/>
<feGaussianBlur stdDeviation="2"/>
<feComposite in2="hardAlpha" operator="out"/>
<feColorMatrix type="matrix" values="0 0 0 0 0 0 0 0 0 0 0 0 0 0 0 0 0 0 0.25 0"/>
<feBlend mode="normal" in2="BackgroundImageFix" result="effect1_dropShadow_5_26"/>
<feBlend mode="normal" in="SourceGraphic" in2="effect1_dropShadow_5_26" result="shape"/>
</filter>
<filter id="filter30_d_5_26" x="195.873" y="38.0011" width="52.5034" height="52.377" filterUnits="userSpaceOnUse" color-interpolation-filters="sRGB">
<feFlood flood-opacity="0" result="BackgroundImageFix"/>
<feColorMatrix in="SourceAlpha" type="matrix" values="0 0 0 0 0 0 0 0 0 0 0 0 0 0 0 0 0 0 127 0" result="hardAlpha"/>
<feOffset dy="2"/>
<feGaussianBlur stdDeviation="2"/>
<feComposite in2="hardAlpha" operator="out"/>
<feColorMatrix type="matrix" values="0 0 0 0 0 0 0 0 0 0 0 0 0 0 0 0 0 0 0.25 0"/>
<feBlend mode="normal" in2="BackgroundImageFix" result="effect1_dropShadow_5_26"/>
<feBlend mode="normal" in="SourceGraphic" in2="effect1_dropShadow_5_26" result="shape"/>
</filter>
</defs>
</svg>
